<?xml version="1.0" encoding="UTF-8" standalone="no"?>
<!DOCTYPE svg PUBLIC "-//W3C//DTD SVG 1.1//EN"
"http://www.w3.org/Graphics/SVG/1.1/DTD/svg11.dtd">
<svg viewBox="0 0 909 1286" version="1.1" xmlns="http://www.w3.org/2000/svg" xmlns:xlink="http://www.w3.org/1999/xlink">
<defs>
<clipPath id="c0_3"><path d="M-909.3 1299.2V9.2H4.9v1290Z"/></clipPath>
<clipPath id="c1_3"><path d="M0 1299.2V9.2H914.4v1290Z"/></clipPath>
<style type="text/css"><![CDATA[
.g0_3{
fill: #FFC43B;
}
.g1_3{
fill: #000;
}
.g2_3{
fill: #FFF;
}
.g3_3{
fill: none;
stroke: #000;
stroke-width: 1.527;
stroke-dasharray: 14,14;
}
.g4_3{
fill: none;
stroke: #000;
stroke-width: 1.527;
}
]]></style>
</defs>
<image clip-path="url(#c0_3)" preserveAspectRatio="none" x="-908" y="9" width="913" height="1292" xlink:href="img/1.png"/>
<image clip-path="url(#c1_3)" preserveAspectRatio="none" x="0" y="9" width="914" height="1292" xlink:href="img/2.png"/>
<image preserveAspectRatio="none" x="295" y="1237" width="321" height="49" xlink:href="img/3.png"/>
<image preserveAspectRatio="none" x="0" y="1230" width="14" height="56" xlink:href="img/4.png"/>
<image preserveAspectRatio="none" x="0" y="1230" width="923" height="56" xlink:href="img/5.png"/>
<image preserveAspectRatio="none" x="0" y="-24" width="8" height="77" xlink:href="img/6.png"/>
<path d="M-909.3 39.3H0V-21.9H-909.3V39.3Z" class="g0_3"/>
<image preserveAspectRatio="none" x="0" y="-24" width="917" height="77" xlink:href="img/7.png"/>
<path d="M0 39.3H909.4V-21.9H0V39.3Z" class="g0_3"/>
<path d="M-910.4 28.7H1.1V-32.6H-910.4V28.7Z" class="g1_3"/>
<path d="M-1 28.7H910.5V-32.6H-1V28.7Z" class="g1_3"/>
<path d="M83.9 135.9c-3.6 0 -6.5 2.9 -6.5 6.5V1204.8c0 3.6 2.9 6.5 6.5 6.5H830.8c3.6 0 6.5 -2.9 6.5 -6.5V142.4c0 -3.6 -2.9 -6.5 -6.5 -6.5Z" class="g2_3"/>
<path d="M77.4 162.9V1191.2m27.2 20.1H817m20.3 -26.9V156M810.1 135.9H97.7" class="g3_3"/>
<path d="M77.4 1198v6.8c0 3.6 2.9 6.5 6.5 6.5h6.9m733.1 0h6.9c3.6 0 6.5 -2.9 6.5 -6.5V1198m0 -1048.8v-6.8c0 -3.6 -2.9 -6.5 -6.5 -6.5h-6.9m-733.1 0H83.9c-3.6 0 -6.5 2.9 -6.5 6.5v6.8" class="g4_3"/>
<path d="M71.4 111.6h3V84.2h-3v27.4Z" class="g0_3"/>
</svg>