<?xml version="1.0" encoding="utf-8"?>
<!-- Generator: Adobe Illustrator 28.2.0, SVG Export Plug-In . SVG Version: 6.00 Build 0)  -->
<svg version="1.1" id="Layer_1" xmlns="http://www.w3.org/2000/svg" xmlns:xlink="http://www.w3.org/1999/xlink" x="0px" y="0px"
	 viewBox="0 0 132.9 49.1" style="enable-background:new 0 0 132.9 49.1;" xml:space="preserve">
<style type="text/css">
	.st0{fill:#707070;}
	.st1{fill:#FFC43B;}
</style>
<g>
	<g transform="translate(-141.075 -567)">
		<path class="st0" d="M176,590.5h6.5v-0.8h-5.4v-8.8H176V590.5z M190.1,586.9c0.1-1.9-1.3-3.5-3.2-3.7c-0.1,0-0.2,0-0.3,0
			c-1.9,0-3.5,1.5-3.5,3.4c0,0.1,0,0.2,0,0.2c-0.1,2,1.5,3.6,3.5,3.7c0.1,0,0.2,0,0.3,0c1.1,0,2.1-0.4,2.8-1.2l-0.5-0.6
			c-0.5,0.6-1.4,1-2.2,1c-1.5,0.1-2.8-1.1-2.9-2.5l0,0h6C190.1,587.1,190.1,587,190.1,586.9z M186.6,584c1.4,0,2.5,1.1,2.5,2.4h-5.1
			C184.1,585.1,185.2,584,186.6,584z M194,590.6c1.9,0,3-0.8,3-2.1c0-2.8-4.7-1.3-4.7-3.3c0-0.7,0.5-1.2,1.9-1.2
			c0.7,0,1.5,0.2,2.1,0.6l0.4-0.7c-0.7-0.4-1.7-0.7-2.5-0.6c-1.8,0-2.9,0.8-2.9,2.1c0,2.9,4.7,1.4,4.7,3.3c0,0.7-0.5,1.2-1.9,1.2
			c-1,0-1.8-0.3-2.5-0.8l-0.4,0.7C192,590.2,193,590.6,194,590.6z M200.8,590.6c1.9,0,3-0.8,3-2.1c0-2.8-4.7-1.3-4.7-3.3
			c0-0.7,0.5-1.2,1.9-1.2c0.7,0,1.5,0.2,2.1,0.6l0.4-0.7c-0.7-0.4-1.7-0.7-2.5-0.6c-1.8,0-2.9,0.8-2.9,2.1c0,2.9,4.7,1.4,4.7,3.3
			c0,0.7-0.5,1.2-1.9,1.2c-1,0-1.8-0.3-2.5-0.8l-0.4,0.7C198.7,590.2,199.7,590.6,200.8,590.6z M218.9,583.3l-2.3,6.1l-2.3-6.1h-0.8
			l-2.3,6.1l-2.2-6.1h-1l2.8,7.2h1l2.3-5.9l2.3,5.9h1l2.8-7.2H218.9z M223.5,583.2c-1.1,0-2.1,0.3-3,1l0.4,0.7
			c0.6-0.5,1.5-0.8,2.4-0.8c1.4,0,2,0.6,2,1.9v0.4h-2.3c-2.1,0-2.8,1-2.8,2c0,1.3,1,2.1,2.6,2.1c1,0.1,1.9-0.4,2.5-1.2v1.2h1V586
			C226.5,584.1,225.4,583.2,223.5,583.2L223.5,583.2z M223.2,589.7c-1.2,0-1.8-0.5-1.8-1.4c0-0.7,0.4-1.3,1.9-1.3h2.2v1.2
			C225.1,589.2,224.2,589.8,223.2,589.7z M231,590.6c1.9,0,3-0.8,3-2.1c0-2.8-4.7-1.3-4.7-3.3c0-0.7,0.5-1.2,1.9-1.2
			c0.7,0,1.5,0.2,2.1,0.6l0.4-0.7c-0.7-0.4-1.7-0.7-2.5-0.6c-1.8,0-2.9,0.8-2.9,2.1c0,2.9,4.7,1.4,4.7,3.3c0,0.7-0.5,1.2-1.9,1.2
			c-1,0-1.8-0.3-2.5-0.8l-0.4,0.7C229,590.2,230,590.6,231,590.6L231,590.6z M239.3,589.3c-0.3,0.2-0.6,0.4-1.1,0.4
			c-0.6,0.1-1.2-0.4-1.3-1.1c0-0.1,0-0.2,0-0.2v-4.3h2.2v-0.8H237v-1.6h-1v1.6h-1.3v0.8h1.3v4.3c-0.1,1.1,0.6,2,1.7,2.1
			c0.1,0,0.3,0,0.4,0c0.5,0,1.1-0.2,1.5-0.5L239.3,589.3z M247.5,586.9c0.1-1.9-1.3-3.5-3.2-3.7c-0.1,0-0.2,0-0.3,0
			c-1.9,0-3.5,1.5-3.5,3.4c0,0.1,0,0.2,0,0.2c-0.1,2,1.5,3.6,3.5,3.7c0.1,0,0.2,0,0.3,0c1.1,0,2.1-0.4,2.8-1.2l-0.5-0.6
			c-0.5,0.6-1.4,1-2.2,1c-1.5,0.1-2.8-1.1-2.9-2.5l0,0h6C247.4,587.1,247.5,587,247.5,586.9L247.5,586.9z M243.9,584
			c1.4,0,2.5,1.1,2.5,2.4h-5.1C241.5,585.1,242.7,584,243.9,584z M249.5,589c-0.4,0-0.7,0.3-0.7,0.7l0,0c0,0.3,0.2,0.6,0.5,0.7
			l-0.4,2h0.6l0.5-1.9c0.1-0.2,0.2-0.5,0.2-0.8C250.3,589.4,250,589.1,249.5,589C249.7,589,249.7,589,249.5,589L249.5,589z
			 M184.8,599c-1.2-0.1-2.2,0.5-2.9,1.5c-0.4-1-1.5-1.6-2.5-1.5c-1.1-0.1-2.1,0.4-2.6,1.4v-1.3h-1v7.2h1v-3.8
			c-0.2-1.3,0.7-2.4,2-2.6c0.1,0,0.3,0,0.4,0c1.3,0,2.1,0.7,2.1,2.3v4.1h1v-3.8c-0.2-1.3,0.7-2.4,2-2.6c0.1,0,0.3,0,0.4,0
			c1.3,0,2.1,0.7,2.1,2.3v4.1h1v-4.2C187.8,600.1,186.6,599,184.8,599z M193.4,606.4c2,0.1,3.6-1.5,3.7-3.5c0-0.1,0-0.2,0-0.2
			c0.1-2-1.5-3.6-3.4-3.7c-0.1,0-0.2,0-0.2,0c-2-0.1-3.6,1.5-3.7,3.4c0,0.1,0,0.2,0,0.2C189.7,604.6,191.3,606.2,193.4,606.4
			C193.3,606.4,193.3,606.4,193.4,606.4z M193.4,605.5c-1.5,0-2.6-1.2-2.8-2.5c0-0.1,0-0.1,0-0.2c-0.1-1.5,1.1-2.8,2.5-2.9
			c1.5-0.1,2.8,1.1,2.9,2.5c0,0.1,0,0.2,0,0.2c0.1,1.5-1,2.8-2.4,2.9C193.5,605.5,193.5,605.5,193.4,605.5z M199.9,600.5v-1.4h-1
			v7.2h1v-3.7c-0.2-1.3,0.7-2.4,2-2.6c0.1,0,0.3,0,0.4,0c0.1,0,0.1,0,0.2,0v-1C201.5,598.9,200.5,599.6,199.9,600.5z M210.7,602.7
			c0.1-1.9-1.3-3.5-3.2-3.7c-0.1,0-0.2,0-0.3,0c-1.9,0-3.5,1.5-3.5,3.4c0,0.1,0,0.2,0,0.2c-0.1,2,1.5,3.6,3.5,3.7c0.1,0,0.2,0,0.3,0
			c1.1,0,2.1-0.4,2.8-1.2l-0.5-0.6c-0.5,0.6-1.4,1-2.2,1c-1.5,0.1-2.8-1.1-2.9-2.5l0,0h6C210.7,602.9,210.7,602.8,210.7,602.7
			L210.7,602.7z M207.2,599.9c1.4,0,2.5,1.1,2.5,2.4h-5.1C204.7,600.9,205.9,599.9,207.2,599.9z M220,599c-1.2,0-2.2,0.5-2.8,1.5
			v-1.4h-1v9.9h1v-4c0.6,1,1.7,1.5,2.8,1.5c1.9,0.1,3.6-1.5,3.6-3.4c0-0.1,0-0.2,0-0.3c0.1-1.9-1.4-3.6-3.3-3.7
			C220.2,599,220.1,599,220,599z M219.9,605.5c-1.5,0-2.6-1.2-2.8-2.5c0-0.1,0-0.1,0-0.2c0-1.5,1.2-2.8,2.6-2.8
			c1.5,0,2.8,1.2,2.8,2.6v0.1c0.1,1.5-1.1,2.8-2.5,2.9C220.1,605.5,220,605.5,219.9,605.5z M225.6,606.3h1v-10.2h-1V606.3z
			 M231.9,599c-1.1,0-2.1,0.3-3,1l0.4,0.7c0.6-0.5,1.5-0.8,2.4-0.8c1.4,0,2,0.6,2,1.9v0.4h-2.3c-2.1,0-2.8,1-2.8,2
			c0,1.3,1,2.1,2.6,2.1c1,0.1,1.9-0.4,2.5-1.2v1.2h1v-4.4C234.7,600,233.7,599,231.9,599z M231.5,605.6c-1.2,0-1.8-0.5-1.8-1.4
			c0-0.7,0.4-1.3,1.9-1.3h2.2v1.2C233.5,605.1,232.5,605.7,231.5,605.6z M241.1,599c-1.1-0.1-2.1,0.4-2.8,1.4V599h-1v7.2h1v-3.8
			c-0.1-1.3,0.8-2.4,2.1-2.6c0.1,0,0.3,0,0.4,0c1.2-0.1,2.1,0.7,2.2,1.8c0,0.1,0,0.3,0,0.4v4.1h1v-4.2c0.2-1.5-0.8-2.9-2.4-3.1
			C241.5,599,241.3,599,241.1,599z M253,602.7c0.1-1.9-1.3-3.5-3.2-3.7c-0.1,0-0.2,0-0.3,0c-1.9,0-3.5,1.5-3.5,3.4
			c0,0.1,0,0.2,0,0.2c0.1,2.1,1.9,3.8,3.9,3.7c1,0,1.9-0.4,2.6-1.2l-0.5-0.6c-0.5,0.6-1.4,1-2.2,1c-1.5,0.1-2.8-1.1-2.9-2.5l0,0h6
			C253,602.9,253,602.8,253,602.7z M249.5,599.9c1.4,0,2.5,1.1,2.5,2.4h-5.2C247.1,600.9,248.2,599.9,249.5,599.9z M258.5,605.2
			c-0.3,0.2-0.6,0.4-1.1,0.4c-0.6,0.1-1.2-0.4-1.3-1.1c0-0.1,0-0.2,0-0.2V600h2.2v-0.8h-2.2v-1.6h-1v1.6H254v0.8h1.3v4.3
			c-0.1,1.1,0.6,2,1.7,2.1c0.1,0,0.3,0,0.4,0c0.5,0,1.1-0.2,1.5-0.5L258.5,605.2z M264.4,606.4c0.4,0,0.7-0.3,0.7-0.7
			c0-0.4-0.3-0.7-0.7-0.7s-0.7,0.3-0.7,0.7l0,0C263.6,606,263.9,606.4,264.4,606.4L264.4,606.4z M267.3,606.4c0.4,0,0.7-0.3,0.7-0.7
			c0-0.4-0.3-0.7-0.7-0.7c-0.4,0-0.7,0.3-0.7,0.7l0,0C266.6,606,266.9,606.4,267.3,606.4L267.3,606.4z M270.4,606.4
			c0.4,0,0.7-0.3,0.7-0.7c0-0.4-0.3-0.7-0.7-0.7c-0.4,0-0.7,0.3-0.7,0.7l0,0C269.7,606,270,606.4,270.4,606.4L270.4,606.4z
			 M273.2,606.4c0.4,0,0.7-0.3,0.7-0.7c0-0.4-0.3-0.7-0.7-0.7s-0.7,0.3-0.7,0.7l0,0C272.5,606,272.8,606.4,273.2,606.4L273.2,606.4z
			"/>
	</g>
	<path class="st1" d="M10.1,27.9c5.3-1.2,10.2,2.2,11.3,7.1c0.1,0.6,0.2,1.3,0.2,1.9c0,0.3,0.1,0.4,0.4,0.4c0.6,0,1.3,0,1.9,0
		c0.2,0,0.3-0.1,0.3-0.3c0.1-2.3-0.5-4.5-1.8-6.4C21,28.5,19.3,27,17.1,26c0-0.4,0.5-0.9,0.5-0.9C25,13.2,23.1,9.3,23.1,9.3
		c-4.9-9.4-6.7-4.1-6.7-4.1c-1.1,1.7-2,17.7-1.8,19.3c0,0.3,0,0.5,0,0.7c-0.5-0.1-1-0.1-1.5-0.2H13c-0.1-0.9-1.3-20.1-3-23.7
		C8.1-2.3,4.7,2.7,4.7,2.7c-5.7,6.8,1,20.1,2.7,23.2C6.2,26.4,5,27.1,4,28c-2.1,1.8-3.3,4.1-3.8,6.9C0.1,35.5,0.1,36,0,36.6
		c0,0.2,0,0.4,0,0.6c0.1,0.5,0.1,1,0.2,1.5c0.6,3.9,2.6,7,6.1,8.9c1.7,1,3.6,1.5,5.6,1.5c4.6-0.1,8.2-2,10.7-6
		c0-0.1,0.1-0.1,0.1-0.2c0.3,0.2,0.6,0.4,1,0.5c0.1,0.1,0.3,0.1,0.4,0s0.1-0.3,0.1-0.4c-0.3-1.2-0.7-2.3-1-3.4
		c-0.1-0.3-0.2-0.3-0.5-0.2c-1.1,0.4-2.1,0.8-3.2,1.2c-0.1,0-0.3,0.2-0.3,0.3s0.1,0.3,0.2,0.3c0.3,0.2,0.6,0.3,1,0.5
		c-0.3,0.4-0.5,0.8-0.8,1.2c-1.6,2-3.7,3.1-6.3,3.5c-4.6,0.6-9.6-2.5-10.4-8C2.1,33.5,5.3,29,10.1,27.9z"/>
</g>
</svg>
