<?xml version="1.0" encoding="UTF-8" standalone="no"?>
<!DOCTYPE svg PUBLIC "-//W3C//DTD SVG 1.1//EN"
"http://www.w3.org/Graphics/SVG/1.1/DTD/svg11.dtd">
<svg viewBox="0 0 909 1286" version="1.1" xmlns="http://www.w3.org/2000/svg" xmlns:xlink="http://www.w3.org/1999/xlink">
<defs>
<clipPath id="c0_1"><path d="M0 1299.2V9.2H914.4v1290Z"/></clipPath>
<style type="text/css"><![CDATA[
.g0_1{
fill: #FFC43B;
}
.g1_1{
fill: #000;
}
.g2_1{
fill: #FFF;
}
.g3_1{
fill: none;
stroke: #000;
stroke-width: 1.527;
}
.g4_1{
fill: none;
stroke: #000;
stroke-width: 1.527;
stroke-dasharray: 15,15;
}
]]></style>
</defs>
<image clip-path="url(#c0_1)" preserveAspectRatio="none" x="0" y="9" width="914" height="1292" xlink:href="img/1.png"/>
<image preserveAspectRatio="none" x="295" y="1237" width="321" height="49" xlink:href="img/2.png"/>
<image preserveAspectRatio="none" x="0" y="1230" width="923" height="56" xlink:href="img/3.png"/>
<image preserveAspectRatio="none" x="0" y="-24" width="917" height="77" xlink:href="img/4.png"/>
<path d="M0 39.3H909.4V-21.9H0V39.3Z" class="g0_1"/>
<path d="M-1 28.7H910.5V-32.6H-1V28.7Z" class="g1_1"/>
<path d="M119.5 289.7c-3.6 0 -6.5 2.9 -6.5 6.5V774c0 3.6 2.9 6.5 6.5 6.5H805.2c3.6 0 6.5 -2.9 6.5 -6.5V296.2c0 -3.6 -2.9 -6.5 -6.5 -6.5Z" class="g2_1"/>
<path d="M119.5 289.7c-3.6 0 -6.5 2.9 -6.5 6.5V774c0 3.6 2.9 6.5 6.5 6.5H805.2c3.6 0 6.5 -2.9 6.5 -6.5V296.2c0 -3.6 -2.9 -6.5 -6.5 -6.5H119.5Z" class="g3_1"/>
<path d="M308.6 1105.5c70.7 0 128 -57.3 128 -128c0 -70.6 -57.3 -127.9 -128 -127.9c-70.7 0 -128 57.3 -128 127.9c0 70.7 57.3 128 128 128Z" class="g2_1"/>
<path d="M330 1103.7c55.9 -9.4 99.4 -55 105.8 -111.8m-1 -35.8c-9.5 -55.8 -55 -99.4 -111.9 -105.7m-35.7 1c-55.9 9.4 -99.4 55 -105.8 111.8m1 35.8c9.5 55.8 55 99.4 111.9 105.7" class="g4_1"/>
<path d="M436.4 984.7c.1 -2.4 .2 -4.8 .2 -7.2c0 -2.4 -.1 -4.8 -.2 -7.1M315.8 849.8c-2.4 -.2 -4.8 -.2 -7.2 -.2c-2.4 0 -4.8 0 -7.2 .2M180.8 970.4c-.1 2.3 -.2 4.7 -.2 7.1c0 2.4 .1 4.8 .2 7.2m120.6 120.6c2.4 .1 4.8 .2 7.2 .2c2.4 0 4.8 -.1 7.2 -.2" class="g3_1"/>
<path d="M624.6 1105.5c70.7 0 128 -57.3 128 -128c0 -70.6 -57.3 -127.9 -128 -127.9c-70.6 0 -127.9 57.3 -127.9 127.9c0 70.7 57.3 128 127.9 128Z" class="g2_1"/>
<path d="M646.1 1103.7c55.8 -9.4 99.4 -55 105.7 -111.8m-1 -35.8C741.4 900.3 695.8 856.7 639 850.4m-35.8 1c-55.8 9.4 -99.4 55 -105.7 111.8m1 35.8c9.4 55.8 55 99.4 111.8 105.7" class="g4_1"/>
<path d="M752.4 984.7c.1 -2.4 .2 -4.8 .2 -7.2c0 -2.4 -.1 -4.8 -.2 -7.1M631.8 849.8c-2.4 -.2 -4.7 -.2 -7.2 -.2c-2.4 0 -4.8 0 -7.1 .2M496.9 970.4c-.1 2.3 -.2 4.7 -.2 7.1c0 2.4 .1 4.8 .2 7.2m120.6 120.6c2.3 .1 4.7 .2 7.1 .2c2.5 0 4.8 -.1 7.2 -.2" class="g3_1"/>
<path d="M534.4 1179h3v-21.4h-3V1179Z" class="g0_1"/>
<path d="M257.3 1179h3v-21.4h-3V1179Z" class="g0_1"/>
<image preserveAspectRatio="none" x="105" y="93" width="149" height="76" xlink:href="img/5.png"/>
</svg>