<?xml version="1.0" standalone="no"?>
<!DOCTYPE svg PUBLIC "-//W3C//DTD SVG 1.1//EN" "http://www.w3.org/Graphics/SVG/1.1/DTD/svg11.dtd" >
<svg xmlns="http://www.w3.org/2000/svg">
<metadata>
<json>
<![CDATA[
{
	"fontFamily": "Melt-icons",
	"fontURL": "https://www.aiedrow.in",
	"designer": "Aiedrow",
	"designerURL": "https://www.aiedrow.in",
	"description": "This font was created by Aiedrow\nFont generated by IcoMoon.",
	"majorVersion": 1,
	"minorVersion": 1,
	"version": "Version 1.1",
	"fontId": "Melt-icons",
	"psName": "Melt-icons",
	"subFamily": "Regular",
	"fullName": "Melt-icons"
}
]]>
</json>
</metadata>
<defs>
<font id="Melt-icons" horiz-adv-x="1024">
<font-face units-per-em="1024" ascent="960" descent="-64" />
<missing-glyph horiz-adv-x="1024" />
<glyph unicode="&#x20;" horiz-adv-x="512" d="" />
<glyph unicode="&#xe900;" glyph-name="fluent_save_16_filled" data-tags="ic_fluent_save_16_filled" d="M319.488 811.691v-161.792q0-38.912 28.672-66.56t67.584-27.648h129.024q38.912 0 67.584 27.648t28.672 66.56v161.792h22.528q53.248-2.048 92.16-38.912l102.4-102.4q36.864-38.912 36.864-92.16v-407.552q0-53.248-36.864-90.112t-90.112-36.864v286.72q0 40.96-27.648 68.608t-68.608 27.648h-319.488q-40.96 0-68.608-27.648t-27.648-68.608v-286.72q-53.248-2.048-90.112 35.84t-36.864 91.136v512q0 53.248 36.864 90.112t90.112 36.864h63.488v2.048zM385.024 811.691v-161.792q0-12.288 9.216-21.504t21.504-9.216h129.024q12.288 0 21.504 9.216t9.216 21.504v161.792h-190.464zM319.488 43.691h385.024v286.72q0 14.336-9.216 23.552t-23.552 9.216h-319.488q-14.336 0-23.552-9.216t-9.216-23.552v-286.72z" />
<glyph unicode="&#xe901;" glyph-name="ic_fluent_sport_soccer_16_filled" data-tags="ic_fluent_sport_soccer_16_filled" d="M96.256 426.667q0 112.64 56.32 207.872t151.552 151.552 207.872 56.32 207.872-56.32 151.552-151.552 56.32-207.872-56.32-207.872-151.552-151.552-207.872-56.32-207.872 56.32-151.552 151.552-56.32 207.872zM360.448 744.107q-69.632-32.768-120.832-94.208l43.008-133.12 63.488-22.528 133.12 102.4v69.632zM161.792 385.707q10.24-81.92 55.296-151.552h120.832l40.96 40.96-51.2 157.696-65.536 22.528zM440.32 82.603q71.68-14.336 143.36 0l51.2 112.64-40.96 38.912h-163.84l-38.912-38.912zM806.912 234.155q43.008 67.584 53.248 147.456l-98.304 73.728-65.536-22.528-51.2-157.696 40.96-40.96h120.832zM782.336 651.947q-49.152 59.392-118.784 92.16l-118.784-77.824v-69.632l133.12-102.4 63.488 22.528z" />
<glyph unicode="&#xe902;" glyph-name="ic_fluent_grid_dots_28_filled" data-tags="ic_fluent_grid_dots_28_filled" d="M512 207.531q24.576 0 46.080-12.288t33.792-33.792 12.288-46.080-12.288-45.056-33.792-32.768-46.080-12.288q-36.864 0-64.512 26.624t-27.648 64.512 27.648 64.512 64.512 26.624zM823.296 207.531q24.576 0 45.056-12.288t32.768-33.792 12.288-46.080-12.288-45.056-32.768-32.768-45.056-12.288q-38.912 0-65.536 26.624t-26.624 64.512 26.624 64.512 65.536 26.624zM200.704 207.531q24.576 0 46.080-12.288t33.792-33.792 12.288-46.080-12.288-45.056-33.792-32.768-46.080-12.288q-36.864 0-63.488 26.624t-26.624 64.512 26.624 64.512 63.488 26.624zM512 518.827q36.864 0 64.512-27.648t27.648-64.512-27.648-64.512-64.512-27.648-64.512 27.648-27.648 64.512 27.648 64.512 64.512 27.648zM823.296 518.827q36.864 0 63.488-27.648t26.624-64.512-26.624-64.512-64.512-27.648-64.512 27.648-26.624 64.512 26.624 64.512 65.536 27.648zM200.704 518.827q38.912 0 65.536-27.648t26.624-64.512-26.624-64.512-64.512-27.648-64.512 27.648-26.624 64.512 26.624 64.512 63.488 27.648zM512 828.075q36.864 0 64.512-26.624t27.648-64.512-27.648-64.512-64.512-26.624-64.512 26.624-27.648 64.512 27.648 64.512 64.512 26.624zM823.296 828.075q36.864 0 63.488-26.624t26.624-64.512-26.624-64.512-64.512-26.624-64.512 26.624-26.624 64.512 26.624 64.512 65.536 26.624zM200.704 828.075q38.912 0 65.536-26.624t26.624-64.512-26.624-64.512-64.512-26.624-64.512 26.624-26.624 64.512 26.624 64.512 63.488 26.624z" />
<glyph unicode="&#xe903;" glyph-name="ic_fluent_chat_warning_16_filled" data-tags="ic_fluent_chat_warning_16_filled" d="M129.024 426.667q0 131.072 78.848 234.496t204.8 137.216 246.784-16.384 185.344-163.84 48.128-242.688-109.568-221.184-222.208-108.544-241.664 49.152l-149.504-51.2q-18.432-6.144-32.768 7.168t-8.192 31.744l45.056 159.744q-47.104 86.016-45.056 184.32zM559.104 250.539q0 20.48-13.312 33.792t-33.792 14.336-33.792-13.312-13.312-34.816 13.312-33.792 33.792-13.312 33.792 13.312 13.312 33.792zM542.72 625.323q-2.048 12.288-11.264 19.456t-21.504 6.144-21.504-10.24-9.216-21.504l2.048-229.376q2.048-12.288 11.264-20.48t21.504-7.168 21.504 10.24 9.216 21.504z" />
<glyph unicode="&#xe904;" glyph-name="ic_fluent_glance_20_filled" data-tags="ic_fluent_glance_20_filled" d="M153.6 197.291v-51.2q0-32.768 22.528-55.296t55.296-22.528h153.6q30.72 0 53.248 22.528t22.528 55.296v51.2q0 30.72-22.528 53.248t-55.296 22.528h-151.552q-32.768 0-55.296-22.528t-22.528-53.248zM153.6 709.291v-256q0-32.768 22.528-55.296t55.296-22.528h153.6q30.72 0 53.248 22.528t22.528 55.296v256q0 30.72-22.528 53.248t-55.296 22.528h-151.552q-32.768 0-55.296-22.528t-22.528-55.296v2.048zM563.2 709.291v-51.2q0-32.768 22.528-55.296t55.296-22.528h153.6q30.72 0 53.248 22.528t22.528 55.296v51.2q0 30.72-22.528 53.248t-55.296 22.528h-151.552q-32.768 0-55.296-22.528t-22.528-55.296v2.048zM641.024 477.867q-32.768 0-55.296-22.528t-22.528-55.296v-253.952q0-32.768 22.528-55.296t55.296-22.528h153.6q30.72 0 53.248 22.528t22.528 55.296v256q0 30.72-22.528 53.248t-55.296 22.528h-151.552z" />
<glyph unicode="&#xe905;" glyph-name="ic_fluent_person_circle_12_filled" data-tags="ic_fluent_person_circle_12_filled" d="M937.984 426.667q0-114.688-56.32-214.016t-155.648-155.648-214.016-56.32-214.016 56.32-155.648 155.648-56.32 215.040 57.344 212.992 154.624 154.624 214.016 57.344 214.016-57.344 154.624-154.624 57.344-214.016zM360.448 404.139q-18.432-20.48-18.432-47.104v-12.288q0-55.296 48.128-93.184t121.856-37.888 121.856 37.888 48.128 93.184v12.288q0 26.624-18.432 48.128t-47.104 21.504h-208.896q-28.672 0-47.104-22.528zM512 512.683q34.816 0 60.416 24.576t25.6 60.416-25.6 60.416-60.416 24.576-60.416-24.576-25.6-60.416 25.6-60.416 60.416-24.576z" />
<glyph unicode="&#xe906;" glyph-name="ic_fluent_person_info_20_filled" data-tags="ic_fluent_person_info_20_filled" d="M460.8 836.267q-83.968 0-144.384-60.416t-60.416-144.384 60.416-144.384 144.384-60.416 144.384 60.416 60.416 144.384-60.416 144.384-144.384 60.416zM204.8 375.467q-43.008 0-72.704-29.696t-29.696-72.704q0-63.488 28.672-112.64t79.872-81.92q98.304-61.44 249.856-61.44 30.72 0 61.44 2.048-61.44 77.824-61.44 178.176t63.488 178.176h-319.488zM710.656 299.691q0 12.288 9.216 21.504t22.528 9.216 22.528-9.216 9.216-22.528-9.216-22.528-22.528-9.216-22.528 9.216-9.216 23.552zM768 94.891q0-12.288-7.168-19.456t-18.432-7.168-18.432 7.168-7.168 19.456v102.4q0 10.24 7.168 17.408t18.432 7.168 18.432-7.168 7.168-17.408v-102.4zM512 197.291q0 61.44 30.72 114.688t83.968 83.968 115.712 30.72 115.712-30.72 83.968-83.968 30.72-115.712-30.72-115.712-83.968-83.968-115.712-30.72-115.712 30.72-83.968 83.968-30.72 116.736zM563.2 197.291q0-75.776 52.224-128t126.976-52.224 126.976 52.224 52.224 126.976-52.224 126.976-126.976 52.224-126.976-52.224-52.224-128v2.048z" />
<glyph unicode="&#xe907;" glyph-name="ic_fluent_square_dismiss_16_filled" data-tags="ic_fluent_square_dismiss_16_filled" d="M288.768 811.691q-67.584 0-114.688-47.104t-47.104-114.688v-446.464q2.048-67.584 48.128-114.688t113.664-47.104h112.64q-57.344 69.632-74.752 155.648t8.192 171.008 88.064 147.456 147.456 88.064 171.008 8.192 155.648-74.752v112.64q0 67.584-47.104 114.688t-114.688 47.104h-446.464zM671.744-21.845q77.824 0 144.384 38.912t105.472 105.472 38.912 144.384-38.912 144.384-105.472 105.472-144.384 37.888-144.384-38.912-105.472-104.448-38.912-144.384 38.912-144.384 105.472-105.472 144.384-38.912zM790.528 385.707q10.24-10.24 10.24-23.552t-10.24-21.504l-73.728-73.728 73.728-73.728q10.24-10.24 10.24-22.528t-10.24-22.528-22.528-10.24-22.528 10.24l-73.728 73.728-73.728-73.728q-12.288-12.288-30.72-8.192t-22.528 22.528 8.192 30.72l73.728 73.728-73.728 73.728q-8.192 8.192-8.192 21.504t9.216 22.528 22.528 9.216 21.504-8.192l73.728-73.728 73.728 73.728q10.24 8.192 22.528 8.192t22.528-8.192z" />
<glyph unicode="&#xe908;" glyph-name="ic_fluent_tag_circle_20_filled" data-tags="ic_fluent_tag_circle_20_filled" d="M102.4 426.667q0 110.592 55.296 204.8t149.504 149.504 204.8 55.296 204.8-55.296 149.504-149.504 55.296-204.8-55.296-204.8-149.504-149.504-204.8-55.296-204.8 55.296-149.504 149.504-55.296 204.8zM307.2 504.491v-153.6q0-32.768 22.528-55.296t55.296-22.528h206.848q30.72 0 55.296 20.48l92.16 73.728q28.672 22.528 28.672 59.392t-28.672 59.392l-92.16 73.728q-24.576 20.48-55.296 20.48h-206.848q-32.768 0-55.296-22.528t-22.528-55.296v2.048z" />
<glyph unicode="&#xe909;" glyph-name="ic_fluent_window_multiple_16_regular" data-tags="ic_fluent_window_multiple_16_regular" d="M288.768 811.691q-67.584 0-114.688-47.104t-47.104-114.688v-319.488q2.048-65.536 48.128-112.64t113.664-47.104h319.488q65.536 0 112.64 47.104t47.104 112.64v319.488q0 67.584-47.104 114.688t-112.64 47.104h-319.488zM698.368 682.667h-501.76q10.24 28.672 35.84 46.080t56.32 17.408h319.488q30.72 0 55.296-17.408t34.816-46.080zM192.512 619.179h512v-288.768q0-38.912-28.672-67.584t-67.584-28.672h-319.488q-40.96 0-68.608 28.672t-27.648 67.584v288.768zM415.744 43.691q-36.864-2.048-70.656 15.36t-56.32 48.128h352.256q77.824 0 134.144 56.32t56.32 136.192v350.208q30.72-22.528 48.128-55.296t17.408-71.68v-223.232q-2.048-69.632-35.84-129.024t-93.184-94.208-129.024-32.768h-223.232z" />
<glyph unicode="&#xe90a;" glyph-name="ic_fluent_align_space_around_horizontal_20_filled" data-tags="ic_fluent_align_space_around_horizontal_20_filled" d="M385.024 119.467q30.72 0 53.248 22.528t22.528 55.296v460.8q0 30.72-22.528 53.248t-55.296 22.528h-100.352q-32.768 0-55.296-22.528t-22.528-55.296v-458.752q0-32.768 22.528-55.296t55.296-22.528h102.4zM743.424 119.467q30.72 0 53.248 22.528t22.528 55.296v460.8q0 30.72-22.528 53.248t-55.296 22.528h-100.352q-32.768 0-55.296-22.528t-22.528-55.296v-458.752q0-32.768 22.528-55.296t55.296-22.528h102.4z" />
<glyph unicode="&#xe90b;" glyph-name="ic_fluent_glance_horizontal_12_regular" data-tags="ic_fluent_glance_horizontal_12_regular" d="M212.992 426.667q-53.248 0-90.112 37.888t-36.864 91.136v169.984q0 53.248 36.864 90.112t90.112 36.864h256q53.248 0 91.136-36.864t37.888-90.112v-169.984q0-53.248-37.888-91.136t-91.136-37.888h-256zM169.984 555.691q0-18.432 13.312-30.72t29.696-12.288h256q18.432 0 30.72 12.288t12.288 28.672v172.032q0 16.384-12.288 29.696t-30.72 13.312h-256q-16.384 0-29.696-13.312t-13.312-29.696v-169.984zM555.008 0.683q-53.248 0-91.136 36.864t-37.888 90.112v86.016q0 53.248 37.888 90.112t91.136 36.864h256q53.248 0 90.112-36.864t36.864-90.112v-86.016q0-53.248-36.864-90.112t-90.112-36.864h-256zM512 127.659q0-16.384 12.288-29.696t30.72-13.312h256q16.384 0 29.696 13.312t13.312 29.696v86.016q0 16.384-13.312 29.696t-29.696 13.312h-256q-18.432 0-30.72-13.312t-12.288-29.696v-86.016zM681.984 555.691q0-53.248 37.888-91.136t91.136-37.888 90.112 37.888 36.864 91.136v169.984q0 53.248-36.864 90.112t-90.112 36.864-91.136-36.864-37.888-90.112v-169.984zM811.008 512.683q-18.432 0-30.72 12.288t-12.288 28.672v172.032q0 16.384 12.288 29.696t29.696 13.312 30.72-13.312 13.312-29.696v-169.984q0-18.432-13.312-30.72t-29.696-12.288zM212.992 0.683q-53.248 0-90.112 36.864t-36.864 90.112v86.016q0 53.248 36.864 90.112t90.112 36.864 91.136-36.864 37.888-90.112v-86.016q0-53.248-37.888-90.112t-91.136-36.864zM169.984 127.659q0-16.384 13.312-29.696t30.72-13.312 29.696 13.312 12.288 29.696v86.016q0 16.384-12.288 29.696t-29.696 13.312-30.72-13.312-13.312-29.696v-86.016z" />
<glyph unicode="&#xe90c;" glyph-name="ic_fluent_diversity_48_regular" data-tags="ic_fluent_diversity_48_regular" d="M229.376 307.883q-14.336-10.24-26.624-26.624l163.84-163.84q16.384 12.288 26.624 26.624zM415.744 199.339q2.048 26.624-6.144 52.224t-27.648 45.056-45.056 27.648-52.224 6.144zM313.344 96.939l-131.072 131.072q-4.096-26.624 5.12-52.224t28.672-45.056 45.056-28.672 52.224-5.12zM313.344 748.203l100.352-200.704q4.096-8.192 0-16.384t-14.336-8.192h-202.752q-8.192 0-12.288 8.192t0 16.384l100.352 200.704q4.096 8.192 14.336 8.192t14.336-8.192zM825.344 281.259q16.384-8.192 16.384-26.624v-81.92q0-18.432-16.384-28.672l-81.92-43.008q-18.432-10.24-34.816 0l-83.968 43.008q-16.384 10.24-16.384 28.672v81.92q0 18.432 16.384 26.624l83.968 45.056q16.384 8.192 34.816 0zM360.448 772.779q-12.288 24.576-36.864 33.792t-49.152 0-36.864-33.792l-102.4-200.704q-16.384-36.864 4.096-69.632t57.344-32.768h202.752q38.912 0 59.392 32.768t2.048 69.632zM661.504 811.691q-45.056 0-75.776-31.744t-30.72-76.8v-126.976q0-45.056 30.72-75.776t75.776-30.72h126.976q45.056 0 76.8 30.72t29.696 75.776v126.976q2.048 45.056-29.696 75.776t-76.8 30.72h-126.976v2.048zM468.992 213.675q0-71.68-50.176-121.856t-120.832-49.152-119.808 50.176-49.152 119.808 49.152 120.832 119.808 50.176 120.832-50.176 50.176-119.808zM768 373.419q-20.48 10.24-43.008 10.24t-43.008-10.24l-81.92-45.056q-20.48-10.24-32.768-30.72t-12.288-43.008v-81.92q0-24.576 12.288-44.032t32.768-31.744l81.92-43.008q20.48-10.24 43.008-10.24t43.008 10.24l81.92 43.008q22.528 12.288 33.792 31.744t11.264 44.032v81.92q2.048 22.528-10.24 43.008t-34.816 30.72z" />
<glyph unicode="&#xe90d;" glyph-name="ic_fluent_diversity_20_filled" data-tags="ic_fluent_diversity_20_filled" d="M395.264 96.939q-38.912-28.672-88.064-28.672-43.008 0-79.872 22.528t-56.32 60.416-16.384 80.896 27.648 77.824zM698.368 371.371l-114.688-59.392q-20.48-10.24-20.48-34.816v-110.592q0-24.576 20.48-34.816l114.688-59.392q18.432-8.192 36.864 0l114.688 59.392q20.48 10.24 20.48 34.816v110.592q0 24.576-20.48 34.816l-114.688 59.392q-18.432 8.192-36.864 0zM432.128 133.803q28.672 38.912 28.672 88.064 0 43.008-22.528 79.872t-60.416 56.32-80.896 16.384-77.824-27.648zM665.6 785.067q-43.008 0-72.704-29.696t-29.696-72.704v-102.4q0-43.008 29.696-72.704t72.704-29.696h102.4q43.008 0 72.704 29.696t29.696 72.704v102.4q0 43.008-29.696 72.704t-72.704 29.696h-102.4zM251.904 750.251q8.192 16.384 22.528 25.6t32.768 9.216 32.768-9.216 22.528-25.6l92.16-180.224q14.336-32.768-3.072-62.464t-54.272-29.696h-180.224q-36.864 0-54.272 29.696t-3.072 62.464z" />
<glyph unicode="&#xe90e;" glyph-name="ic_fluent_food_cake_12_regular" data-tags="ic_fluent_food_cake_12_regular" d="M512 852.651q-55.296 0-90.112-55.296-22.528-34.816-26.624-75.776-4.096-61.44 26.624-98.304t90.112-36.864 90.112 36.864 26.624 100.352q-4.096 38.912-24.576 73.728-36.864 55.296-92.16 55.296zM481.28 717.483q0 16.384 11.264 33.792t19.456 17.408 19.456-18.432 13.312-32.768q2.048-28.672-6.144-36.864t-26.624-8.192-25.6 8.192-5.12 36.864zM854.016 84.651v299.008q0 53.248-37.888 91.136t-91.136 37.888h-425.984q-53.248 0-91.136-37.888t-37.888-91.136v-299.008h-40.96q-18.432 0-30.72-12.288t-12.288-29.696 12.288-29.696 28.672-12.288h770.048q16.384 0 28.672 12.288t12.288 29.696-12.288 29.696-28.672 12.288h-43.008zM299.008 426.667h425.984q18.432 0 30.72-12.288t12.288-30.72v-67.584l-73.728-57.344q-12.288-10.24-26.624 0l-94.208 67.584q-26.624 20.48-61.44 20.48t-61.44-20.48l-94.208-67.584q-14.336-10.24-26.624 0l-73.728 57.344v67.584q0 18.432 12.288 30.72t30.72 12.288zM256 209.579l20.48-18.432q28.672-20.48 64.512-21.504t64.512 19.456l94.208 67.584q12.288 8.192 24.576 0l94.208-67.584q28.672-20.48 64.512-19.456t62.464 21.504l22.528 18.432v-124.928h-512v124.928z" />
<glyph unicode="&#xe90f;" glyph-name="ic_fluent_hat_graduation_12_regular" data-tags="ic_fluent_hat_graduation_12_regular" d="M583.68 752.299q-34.816 16.384-71.68 16.384t-71.68-16.384l-415.744-196.608q-12.288-6.144-18.432-17.408t-6.144-23.552v-258.048q0-18.432 12.288-30.72t29.696-12.288 30.72 12.288 13.312 30.72v190.464l83.968-40.96v-235.52q0-18.432 12.288-30.72l8.192-6.144q40.96-36.864 86.016-63.488 116.736-69.632 235.52-69.632t235.52 69.632q45.056 26.624 86.016 63.488l8.192 6.144q12.288 12.288 12.288 30.72v235.52l145.408 71.68q24.576 12.288 24.576 38.912t-24.576 38.912zM585.728 273.067l182.272 90.112v-174.080q-30.72-24.576-65.536-45.056-96.256-59.392-190.464-59.392t-190.464 59.392q-34.816 20.48-65.536 45.056v174.080l182.272-90.112q34.816-18.432 73.728-18.432t73.728 18.432zM546.816 674.475l335.872-159.744-333.824-165.888q-36.864-18.432-73.728 0l-333.824 165.888 335.872 159.744q34.816 16.384 69.632 0zM184.32 139.947v0 0z" />
<glyph unicode="&#xe910;" glyph-name="ic_fluent_hat_graduation_12_filled" data-tags="ic_fluent_hat_graduation_12_filled" d="M440.32 752.299q34.816 16.384 71.68 16.384t71.68-16.384l415.744-196.608q24.576-12.288 24.576-38.912t-24.576-38.912l-413.696-204.8q-34.816-18.432-73.728-18.432t-73.728 18.432l-352.256 174.080v-190.464q0-18.432-13.312-30.72t-30.72-12.288-29.696 12.288-12.288 30.72v258.048q0 12.288 6.144 23.552t18.432 17.408zM169.984 309.931v-139.264q0-18.432 12.288-30.72l8.192-6.144q40.96-36.864 86.016-63.488 116.736-69.632 235.52-69.632t235.52 69.632q45.056 26.624 86.016 63.488l8.192 6.144q12.288 12.288 12.288 30.72v139.264l-229.376-112.64q-53.248-26.624-112.64-26.624t-112.64 26.624z" />
<glyph unicode="&#xe911;" glyph-name="ic_fluent_speaker_0_32_regular" data-tags="ic_fluent_speaker_0_32_regular" d="M507.904 787.115q18.432 18.432 43.008 8.192t24.576-36.864v-663.552q0-26.624-24.576-36.864t-43.008 8.192l-149.504 149.504q-20.48 18.432-47.104 18.432h-118.784q-53.248 0-91.136 37.888t-37.888 91.136v126.976q0 53.248 37.888 91.136t91.136 37.888h118.784q26.624 0 47.104 18.432zM512 701.099l-108.544-108.544q-38.912-38.912-92.16-38.912h-118.784q-26.624 2.048-45.056-17.408t-18.432-46.080v-126.976q0-26.624 18.432-45.056t45.056-18.432h118.784q53.248 0 92.16-38.912l108.544-108.544v548.864z" />
<glyph unicode="&#xe912;" glyph-name="ic_fluent_speaker_2_32_regular" data-tags="ic_fluent_speaker_2_32_regular" d="M575.488 758.443q0 26.624-24.576 36.864t-43.008-8.192l-149.504-149.504q-20.48-18.432-47.104-18.432h-118.784q-53.248 0-91.136-37.888t-37.888-91.136v-126.976q0-53.248 37.888-91.136t91.136-37.888h118.784q26.624 0 47.104-18.432l149.504-149.504q18.432-18.432 43.008-8.192t24.576 36.864v663.552zM403.456 592.555l108.544 108.544v-548.864l-108.544 108.544q-38.912 36.864-92.16 38.912h-118.784q-26.624-2.048-45.056 17.408t-18.432 46.080v126.976q0 26.624 18.432 46.080t45.056 19.456h118.784q53.248-2.048 92.16 36.864zM731.136 637.611q-10.24 14.336-29.696 13.312t-26.624-18.432 3.072-31.744q59.392-88.064 59.392-174.080t-59.392-174.080q-8.192-10.24-5.12-23.552t13.312-20.48 23.552-5.12 21.504 12.288q71.68 104.448 71.68 210.944t-71.68 210.944zM821.248 770.731q-8.192 8.192-21.504 8.192t-22.528-10.24-9.216-23.552 10.24-21.504q55.296-53.248 86.016-132.096t30.72-164.864-30.72-164.864-86.016-132.096q-10.24-8.192-10.24-21.504t9.216-23.552 22.528-10.24 21.504 8.192q67.584 63.488 102.4 157.696 34.816 88.064 34.816 186.368t-34.816 186.368q-34.816 94.208-102.4 157.696z" />
<glyph unicode="&#xe913;" glyph-name="ic_fluent_sticker_12_regular" data-tags="ic_fluent_sticker_12_regular" d="M425.984 555.691q0-26.624-21.504-38.912t-41.984 0-20.48 38.912q0 16.384 12.288 28.672t29.696 12.288 29.696-12.288 12.288-28.672zM641.024 512.683q16.384 0 28.672 12.288t12.288 29.696-12.288 29.696-29.696 12.288-29.696-12.288-12.288-29.696 12.288-29.696 30.72-12.288zM86.016 682.667q0 71.68 49.152 120.832t120.832 49.152h512q71.68 0 120.832-49.152t49.152-120.832v-382.976q0-18.432-12.288-30.72l-256-256q-12.288-12.288-30.72-12.288h-382.976q-71.68 0-120.832 49.152t-49.152 120.832v512zM256 768.683q-34.816 0-60.416-25.6t-25.6-60.416v-512q0-34.816 25.6-60.416t60.416-25.6h256v169.984q-71.68 0-126.976 55.296-22.528 24.576-38.912 51.2v2.048q-8.192 16.384-2.048 33.792t22.528 24.576 32.768 1.024 24.576-22.528 22.528-28.672q30.72-30.72 65.536-30.72 12.288 0 24.576 4.096 22.528 36.864 61.44 59.392t83.968 22.528h172.032v256q0 34.816-25.6 60.416t-60.416 25.6h-512zM854.016 340.651h-172.032q-34.816 0-59.392-24.576t-24.576-59.392v-172.032h24.576l231.424 231.424v24.576z" />
<glyph unicode="&#xe914;" glyph-name="ic_fluent_sticker_12_filled" data-tags="ic_fluent_sticker_12_filled" d="M256 852.651h512q71.68 0 120.832-49.152t49.152-120.832v-256h-256q-45.056 0-83.968-22.528t-61.44-59.392q-12.288-4.096-24.576-4.096-34.816 0-65.536 30.72-14.336 14.336-23.552 29.696t-25.6 21.504-31.744-2.048-21.504-24.576 2.048-32.768l10.24-16.384q12.288-20.48 28.672-36.864 55.296-55.296 126.976-55.296v-253.952h-256q-71.68 0-120.832 49.152t-49.152 120.832v512q0 71.68 49.152 120.832t120.832 49.152zM385.024 512.683q16.384 0 28.672 12.288t12.288 29.696-12.288 29.696-29.696 12.288-29.696-12.288-12.288-29.696 12.288-29.696 30.72-12.288zM641.024 512.683q16.384 0 28.672 12.288t12.288 29.696-12.288 29.696-29.696 12.288-29.696-12.288-12.288-29.696 12.288-29.696 30.72-12.288zM937.984 340.651h-256q-34.816 0-59.392-24.576t-24.576-59.392v-256h43.008q16.384 0 28.672 12.288l256 256q12.288 12.288 12.288 28.672v43.008z" />
<glyph unicode="&#xe915;" glyph-name="ic_fluent_more_circle_32_regular" data-tags="ic_fluent_more_circle_32_regular" d="M319.488 363.179q26.624 0 45.056 18.432t19.456 45.056-18.432 45.056-46.080 18.432-45.056-18.432-18.432-45.056 18.432-45.056 45.056-18.432zM512 363.179q26.624 0 45.056 18.432t18.432 45.056-18.432 45.056-45.056 18.432-45.056-18.432-18.432-45.056 18.432-45.056 45.056-18.432zM768 426.667q0-26.624-18.432-45.056t-45.056-18.432-45.056 18.432-18.432 45.056 18.432 45.056 45.056 18.432 45.056-18.432 18.432-45.056zM960.512 426.667q0-120.832-60.416-224.256t-163.84-163.84-224.256-60.416-224.256 60.416-163.84 163.84-60.416 224.256 60.416 224.256 163.84 163.84 224.256 60.416 224.256-60.416 163.84-163.84 60.416-224.256zM897.024 426.667q0 104.448-52.224 192.512t-140.288 140.288-192.512 52.224-192.512-52.224-139.264-140.288-51.2-192.512 51.2-192.512 139.264-139.264 192.512-51.2 192.512 51.2 140.288 139.264 52.224 192.512z" />
<glyph unicode="&#xe916;" glyph-name="ic_fluent_apps_list_detail_20_regular" data-tags="ic_fluent_apps_list_detail_20_regular" d="M180.224 733.867q-32.768 0-55.296-22.528t-22.528-55.296v-100.352q0-32.768 22.528-55.296t55.296-22.528h102.4q30.72 0 53.248 22.528t22.528 55.296v102.4q0 30.72-22.528 53.248t-53.248 22.528h-102.4zM153.6 658.091q0 10.24 7.168 17.408t19.456 7.168h102.4q10.24 0 17.408-7.168t7.168-17.408v-102.4q0-12.288-7.168-19.456t-17.408-7.168h-102.4q-12.288 0-19.456 7.168t-7.168 17.408v104.448zM487.424 682.667q-12.288 0-19.456-7.168t-7.168-18.432 7.168-18.432 17.408-7.168h411.648q10.24 0 17.408 7.168t7.168 18.432-7.168 18.432-17.408 7.168h-409.6zM487.424 580.267q-12.288 0-19.456-7.168t-7.168-18.432 7.168-18.432 17.408-7.168h309.248q10.24 0 17.408 7.168t7.168 18.432-7.168 18.432-17.408 7.168h-307.2zM180.224 375.467q-32.768 0-55.296-22.528t-22.528-55.296v-100.352q0-32.768 22.528-55.296t55.296-22.528h102.4q30.72 0 53.248 22.528t22.528 55.296v102.4q0 30.72-22.528 53.248t-53.248 22.528h-102.4zM153.6 299.691q0 10.24 7.168 17.408t19.456 7.168h102.4q10.24 0 17.408-7.168t7.168-17.408v-102.4q0-12.288-7.168-19.456t-17.408-7.168h-102.4q-12.288 0-19.456 7.168t-7.168 19.456v102.4zM487.424 324.267q-12.288 0-19.456-7.168t-7.168-18.432 7.168-18.432 17.408-7.168h411.648q10.24 0 17.408 7.168t7.168 18.432-7.168 18.432-17.408 7.168h-409.6zM487.424 221.867q-12.288 0-19.456-7.168t-7.168-18.432 7.168-18.432 17.408-7.168h309.248q10.24 0 17.408 7.168t7.168 18.432-7.168 18.432-17.408 7.168h-307.2z" />
<glyph unicode="&#xe917;" glyph-name="ic_fluent_apps_list_detail_24_regular" data-tags="ic_fluent_apps_list_detail_24_regular" d="M182.272 768.683q-40.96 0-68.608-28.672t-27.648-67.584v-106.496q0-40.96 27.648-68.608t68.608-27.648h106.496q38.912 0 67.584 27.648t28.672 68.608v106.496q0 38.912-28.672 67.584t-67.584 28.672h-106.496zM149.504 672.427q0 12.288 9.216 21.504t23.552 9.216h106.496q12.288 0 21.504-9.216t9.216-21.504v-106.496q0-14.336-9.216-23.552t-21.504-9.216h-106.496q-14.336 0-23.552 9.216t-9.216 23.552v106.496zM479.232 725.675q-12.288 0-21.504-9.216t-9.216-22.528 9.216-22.528 21.504-9.216h428.032q12.288 0 21.504 9.216t9.216 22.528-9.216 22.528-21.504 9.216h-428.032zM479.232 596.651q-12.288 0-21.504-9.216t-9.216-22.528 9.216-22.528 21.504-9.216h299.008q14.336 0 23.552 9.216t9.216 22.528-9.216 22.528-23.552 9.216h-299.008zM182.272 383.659q-40.96 0-68.608-27.648t-27.648-68.608v-106.496q0-38.912 27.648-67.584t68.608-28.672h106.496q38.912 0 67.584 28.672t28.672 67.584v106.496q-2.048 40.96-29.696 68.608t-66.56 27.648h-106.496zM149.504 287.403q0 14.336 9.216 23.552t23.552 9.216h106.496q12.288 0 21.504-9.216t9.216-23.552v-106.496q0-12.288-9.216-21.504t-21.504-9.216h-106.496q-14.336 0-23.552 9.216t-9.216 21.504v106.496zM479.232 340.651q-12.288 0-21.504-9.216t-9.216-22.528 9.216-22.528 21.504-9.216h428.032q12.288 0 21.504 9.216t9.216 22.528-9.216 22.528-21.504 9.216h-428.032zM479.232 213.675q-12.288 0-21.504-9.216t-9.216-22.528 9.216-22.528 21.504-9.216h299.008q14.336 0 23.552 9.216t9.216 22.528-9.216 22.528-23.552 9.216h-299.008z" />
<glyph unicode="&#xe918;" glyph-name="ic_fluent_chat_video_24_regular" data-tags="ic_fluent_chat_video_24_regular" d="M512 596.651q34.816 0 60.416-24.576t25.6-59.392v-172.032q0-34.816-25.6-59.392t-60.416-24.576h-126.976q-36.864 0-61.44 24.576t-24.576 59.392v172.032q0 34.816 24.576 59.392t61.44 24.576h126.976zM641.024 377.515v98.304l73.728 69.632q14.336 16.384 33.792 7.168t19.456-29.696v-192.512q0-20.48-19.456-29.696t-33.792 7.168zM937.984 426.667q0 116.736-57.344 214.016t-154.624 154.624-214.016 57.344-214.016-57.344-154.624-154.624-57.344-214.016q0-104.448 47.104-196.608l-45.056-161.792q-8.192-30.72 13.312-52.224t52.224-13.312l161.792 45.056q92.16-47.104 196.608-47.104 116.736 0 214.016 57.344t154.624 154.624 57.344 214.016zM149.504 426.667q0 122.88 74.752 220.16t192.512 130.048 231.424-14.336 176.128-152.576 48.128-227.328-100.352-209.92-207.872-105.472-228.352 41.984l-12.288 6.144-169.984-47.104 47.104 169.984-6.144 12.288q-45.056 81.92-45.056 176.128z" />
<glyph unicode="&#xe919;" glyph-name="ic_fluent_apps_list_detail_20_filled" data-tags="ic_fluent_apps_list_detail_20_filled" d="M180.224 733.867q-32.768 0-55.296-22.528t-22.528-55.296v-100.352q0-32.768 22.528-55.296t55.296-22.528h102.4q30.72 0 53.248 22.528t22.528 55.296v102.4q0 30.72-22.528 53.248t-53.248 22.528h-102.4zM487.424 682.667q-12.288 0-19.456-7.168t-7.168-18.432 7.168-18.432 17.408-7.168h411.648q10.24 0 17.408 7.168t7.168 18.432-7.168 18.432-17.408 7.168h-409.6zM487.424 580.267q-12.288 0-19.456-7.168t-7.168-18.432 7.168-18.432 17.408-7.168h309.248q10.24 0 17.408 7.168t7.168 18.432-7.168 18.432-17.408 7.168h-307.2zM180.224 375.467q-32.768 0-55.296-22.528t-22.528-55.296v-100.352q0-32.768 22.528-55.296t55.296-22.528h102.4q30.72 0 53.248 22.528t22.528 55.296v102.4q0 30.72-22.528 53.248t-53.248 22.528h-102.4zM487.424 324.267q-12.288 0-19.456-7.168t-7.168-18.432 7.168-18.432 17.408-7.168h411.648q10.24 0 17.408 7.168t7.168 18.432-7.168 18.432-17.408 7.168h-409.6zM487.424 221.867q-12.288 0-19.456-7.168t-7.168-18.432 7.168-18.432 17.408-7.168h309.248q10.24 0 17.408 7.168t7.168 18.432-7.168 18.432-17.408 7.168h-307.2z" />
<glyph unicode="&#xe91a;" glyph-name="ic_fluent_apps_list_detail_24_filled" data-tags="ic_fluent_apps_list_detail_24_filled" d="M182.272 768.683q-40.96 0-68.608-28.672t-27.648-67.584v-106.496q0-40.96 27.648-68.608t68.608-27.648h106.496q38.912 0 67.584 27.648t28.672 68.608v106.496q0 38.912-28.672 67.584t-67.584 28.672h-106.496zM479.232 725.675q-12.288 0-21.504-9.216t-9.216-22.528 9.216-22.528 21.504-9.216h428.032q12.288 0 21.504 9.216t9.216 22.528-9.216 22.528-21.504 9.216h-428.032zM479.232 596.651q-12.288 0-21.504-9.216t-9.216-22.528 9.216-22.528 21.504-9.216h299.008q14.336 0 23.552 9.216t9.216 22.528-9.216 22.528-23.552 9.216h-299.008zM182.272 383.659q-40.96 0-68.608-27.648t-27.648-68.608v-106.496q0-38.912 27.648-67.584t68.608-28.672h106.496q38.912 0 67.584 28.672t28.672 67.584v106.496q-2.048 40.96-29.696 68.608t-66.56 27.648h-106.496zM479.232 340.651q-12.288 0-21.504-9.216t-9.216-22.528 9.216-22.528 21.504-9.216h428.032q12.288 0 21.504 9.216t9.216 22.528-9.216 22.528-21.504 9.216h-428.032zM479.232 213.675q-12.288 0-21.504-9.216t-9.216-22.528 9.216-22.528 21.504-9.216h299.008q14.336 0 23.552 9.216t9.216 22.528-9.216 22.528-23.552 9.216h-299.008z" />
<glyph unicode="&#xe91b;" glyph-name="ic_fluent_chat_video_20_filled" data-tags="ic_fluent_chat_video_20_filled" d="M921.6 426.667q0 110.592-55.296 204.8t-149.504 149.504-204.8 55.296-204.8-55.296-149.504-149.504-55.296-204.8l2.048-36.864q6.144-77.824 43.008-147.456l2.048-6.144-47.104-186.368v-10.24q2.048-10.24 11.264-17.408t21.504-5.12l186.368 47.104 6.144-2.048q94.208-49.152 200.704-45.056t197.632 60.416 143.36 149.504 52.224 199.68zM307.2 529.067q0 20.48 15.36 35.84t35.84 15.36h153.6q20.48 0 35.84-15.36t15.36-35.84v-204.8q0-20.48-15.36-35.84t-35.84-15.36h-153.6q-20.48 0-35.84 15.36t-15.36 35.84v204.8zM673.792 537.259q12.288 12.288 27.648 5.12t15.36-23.552v-184.32q0-16.384-15.36-23.552t-27.648 5.12l-59.392 59.392v102.4z" />
<glyph unicode="&#xe91c;" glyph-name="ic_fluent_pentagon_32_regular" data-tags="ic_fluent_pentagon_32_regular" d="M450.56 854.699q28.672 20.48 61.44 20.48t61.44-20.48l327.68-237.568q26.624-20.48 36.864-52.224t0-64.512l-124.928-385.024q-10.24-32.768-37.888-52.224t-60.416-19.456h-405.504q-32.768 0-60.416 19.456t-37.888 52.224l-124.928 385.024q-10.24 32.768 0 64.512t36.864 52.224zM534.528 803.499q-10.24 8.192-22.528 8.192t-22.528-8.192l-329.728-237.568q-10.24-8.192-14.336-20.48t0-24.576l126.976-385.024q2.048-12.288 13.312-20.48t23.552-8.192h405.504q12.288 0 23.552 8.192t13.312 20.48l126.976 385.024q4.096 12.288 0 24.576t-14.336 20.48z" />
<glyph unicode="&#xe91d;" glyph-name="ic_fluent_oval_32_filled" data-tags="ic_fluent_oval_32_filled" d="M385.024 746.155q-88.064 0-161.792-43.008t-116.736-116.736-43.008-159.744 43.008-159.744 116.736-116.736 161.792-43.008h256q86.016 0 159.744 43.008t116.736 116.736 43.008 159.744-43.008 159.744-116.736 116.736-159.744 43.008h-256z" />
<glyph unicode="&#xe91e;" glyph-name="ic_fluent_sparkle_24_regular" data-tags="ic_fluent_sparkle_24_regular" d="M370.688 266.923q14.336-10.24 34.816-10.24v0q18.432 0 33.792 10.24t23.552 26.624l24.576 79.872q10.24 26.624 30.72 47.104t47.104 30.72l75.776 24.576q18.432 6.144 30.72 22.528t11.264 35.84-13.312 35.84-30.72 22.528l-73.728 24.576q-28.672 8.192-49.152 28.672t-28.672 49.152l-24.576 75.776q-8.192 18.432-23.552 29.696t-35.84 10.24-35.84-12.288-21.504-29.696l-24.576-75.776q-10.24-26.624-29.696-47.104t-46.080-28.672l-75.776-24.576q-20.48-8.192-31.744-23.552t-11.264-35.84 12.288-35.84 30.72-21.504l75.776-24.576q26.624-10.24 47.104-30.72t28.672-47.104l26.624-75.776q6.144-18.432 22.528-30.72zM354.304 449.195l-16.384 16.384q-30.72 32.768-73.728 45.056l-67.584 22.528 69.632 22.528q40.96 14.336 71.68 45.056t45.056 73.728l20.48 67.584 22.528-67.584q14.336-43.008 45.056-73.728t73.728-45.056l69.632-22.528-67.584-22.528q-43.008-14.336-73.728-45.056t-45.056-73.728l-22.528-65.536-22.528 67.584q-10.24 28.672-28.672 55.296zM696.32 51.883q-12.288 8.192-16.384 22.528l-14.336 43.008q-8.192 26.624-34.816 36.864l-43.008 12.288q-14.336 6.144-23.552 18.432t-9.216 28.672 9.216 28.672 23.552 16.384l43.008 14.336q24.576 10.24 34.816 34.816l12.288 43.008q6.144 14.336 18.432 23.552t27.648 9.216 28.672-9.216 17.408-23.552l14.336-43.008q8.192-26.624 34.816-34.816l43.008-12.288q14.336-6.144 23.552-18.432t10.24-27.648-8.192-28.672-23.552-19.456l-43.008-12.288q-26.624-10.24-36.864-36.864l-12.288-40.96q-6.144-16.384-18.432-24.576t-28.672-8.192-28.672 8.192zM653.312 213.675q24.576-10.24 44.032-28.672t27.648-45.056q10.24 26.624 28.672 45.056t45.056 28.672q-26.624 8.192-46.080 27.648t-27.648 44.032q-18.432-53.248-71.68-71.68z" />
<glyph unicode="&#xe91f;" glyph-name="ic_fluent_sparkle_16_filled" data-tags="ic_fluent_sparkle_16_filled" d="M350.208 309.931q14.336-12.288 33.792-12.288t34.816 11.264 21.504 29.696l22.528 69.632q8.192 22.528 26.624 40.96t40.96 26.624l69.632 22.528q18.432 6.144 29.696 22.528t10.24 34.816-12.288 33.792-29.696 21.504l-67.584 22.528q-24.576 8.192-43.008 26.624t-26.624 40.96l-22.528 69.632q-6.144 18.432-21.504 28.672t-33.792 10.24-34.816-10.24-20.48-28.672l-24.576-69.632q-16.384-51.2-65.536-67.584l-69.632-22.528q-18.432-6.144-29.696-21.504t-10.24-34.816 11.264-34.816 28.672-21.504l69.632-22.528q22.528-8.192 40.96-25.6t26.624-41.984l22.528-69.632q6.144-18.432 22.528-28.672zM673.792 51.883q14.336-8.192 30.72-8.192t29.696 9.216 17.408 25.6l16.384 49.152q6.144 14.336 17.408 25.6t25.6 17.408l51.2 16.384q14.336 4.096 24.576 18.432t9.216 30.72-10.24 29.696-25.6 17.408l-49.152 16.384q-32.768 10.24-43.008 43.008l-16.384 49.152q-6.144 16.384-19.456 25.6t-29.696 9.216-29.696-9.216-19.456-25.6l-14.336-49.152q-10.24-32.768-43.008-43.008l-49.152-16.384q-24.576-8.192-32.768-32.768t8.192-45.056q8.192-14.336 24.576-18.432l49.152-16.384q14.336-6.144 26.624-17.408t16.384-27.648l16.384-49.152q6.144-14.336 18.432-24.576z" />
<glyph unicode="&#xe920;" glyph-name="ic_fluent_sanitize_24_regular" data-tags="ic_fluent_sanitize_24_regular" d="M337.92 760.491l-137.216-139.264q-20.48-18.432-20.48-45.056t20.48-45.056l165.888-167.936q-20.48-30.72-24.576-65.536l-188.416 188.416q-36.864 36.864-36.864 90.112t36.864 90.112l139.264 139.264q38.912 36.864 91.136 36.864t91.136-36.864l147.456-147.456-10.24-8.192q-32.768 2.048-59.392-12.288l-122.88 122.88q-20.48 18.432-46.080 18.432t-46.080-18.432zM630.784 604.843q-12.288 4.096-22.528 4.096-32.768 0-53.248-23.552t-20.48-52.224v-155.648q-22.528 6.144-45.056 6.144-45.056 0-74.752-29.696t-29.696-76.8q0-16.384 12.288-26.624l73.728-51.2 40.96-36.864q40.96-34.816 71.68-79.872l26.624-34.816q16.384-22.528 40.96-34.816t53.248-12.288h69.632q30.72 0 57.344 14.336t40.96 40.96q26.624 45.056 43.008 81.92 22.528 53.248 22.528 86.016v256q0 28.672-20.48 52.224t-53.248 23.552l-14.336-2.048q-6.144 22.528-25.6 38.912t-46.080 16.384q-10.24 0-20.48-4.096-10.24 16.384-27.648 25.6t-35.84 9.216q-43.008 0-63.488-34.816zM700.416 572.075q4.096-2.048 4.096-6.144v-192.512q0-14.336 9.216-23.552t22.528-9.216 22.528 9.216 9.216 23.552v161.792q0 4.096 3.072 6.144t8.192 2.048 7.168-3.072 2.048-7.168v-180.224q0-14.336 10.24-23.552t23.552-9.216 22.528 9.216 9.216 23.552v126.976q0 4.096 2.048 7.168t7.168 3.072 8.192-3.072 3.072-7.168v-256q0-18.432-18.432-61.44-14.336-32.768-38.912-73.728-14.336-24.576-43.008-24.576h-69.632q-26.624 0-43.008 22.528l-24.576 34.816q-36.864 49.152-83.968 90.112l-43.008 38.912-59.392 40.96q8.192 28.672 40.96 28.672 26.624 0 51.2-22.528l2.048-2.048q16.384-12.288 34.816-4.096t18.432 28.672v212.992q0 4.096 2.048 7.168t7.168 3.072 8.192-3.072 3.072-7.168v-159.744q0-14.336 9.216-23.552t22.528-9.216 22.528 9.216 9.216 23.552v192.512q0 4.096 3.072 7.168t8.192 3.072 7.168-4.096zM182.272 340.651q12.288 0 21.504-9.216t9.216-21.504v-32.768h32.768q12.288 0 21.504-9.216t9.216-22.528-9.216-22.528-21.504-9.216h-32.768v-32.768q0-12.288-9.216-21.504t-22.528-9.216-22.528 9.216-9.216 21.504v32.768h-32.768q-12.288 0-21.504 9.216t-9.216 22.528 9.216 22.528 21.504 9.216h32.768v32.768q0 12.288 9.216 21.504t23.552 9.216zM352.256 191.147q12.288 0 22.528-9.216t8.192-21.504v-32.768h32.768q14.336 0 23.552-9.216t9.216-22.528-9.216-22.528-23.552-9.216h-30.72v-32.768q-2.048-12.288-11.264-21.504t-22.528-9.216-22.528 9.216-9.216 21.504v32.768h-30.72q-14.336 0-23.552 9.216t-9.216 22.528 9.216 22.528 23.552 9.216h30.72v32.768q0 12.288 9.216 21.504t23.552 9.216z" />
<glyph unicode="&#xe921;" glyph-name="ic_fluent_note_48_filled" data-tags="ic_fluent_note_48_filled" d="M262.144 811.691q-55.296 0-94.208-39.936t-38.912-95.232v-499.712q-2.048-55.296 37.888-95.232t95.232-37.888h292.864v206.848q0 55.296 38.912 94.208t94.208 38.912h208.896v292.864q0 55.296-39.936 95.232t-95.232 39.936h-499.712zM884.736 330.411h-196.608q-32.768 0-56.32-23.552t-23.552-56.32v-196.608q22.528 10.24 38.912 28.672l208.896 208.896q18.432 16.384 28.672 38.912z" />
<glyph unicode="&#xe922;" glyph-name="ic_fluent_sanitize_20_filled" data-tags="ic_fluent_sanitize_20_filled" d="M141.312 670.379q-36.864-36.864-36.864-90.112t36.864-90.112l178.176-178.176q8.192-8.192 16.384-14.336 4.096 10.24 10.24 18.432 30.72 45.056 75.776 63.488 18.432 8.192 38.912 12.288v163.84q0 38.912 33.792 62.464t70.656 7.168q6.144 20.48 20.48 34.816l-137.216 137.216q-36.864 36.864-90.112 36.864t-90.112-36.864zM641.024 631.467q-12.288 0-19.456-7.168t-7.168-17.408v-256q0-12.288-7.168-19.456t-18.432-7.168-18.432 7.168-7.168 17.408v206.848q0 10.24-7.168 17.408t-18.432 7.168-18.432-7.168-7.168-17.408v-219.136l-16.384 4.096q-28.672 4.096-53.248-8.192-32.768-12.288-53.248-45.056-8.192-10.24-4.096-21.504t14.336-15.36q96.256-43.008 139.264-122.88 24.576-45.056 59.392-73.728 45.056-36.864 92.16-36.864h14.336q36.864 0 67.584 19.456t47.104 52.224l32.768 63.488q18.432 38.912 18.432 79.872v323.584q0 10.24-7.168 17.408t-18.432 7.168-18.432-7.168-7.168-17.408v-204.8q0-12.288-7.168-19.456t-18.432-7.168-18.432 7.168-7.168 17.408v258.048q0 10.24-7.168 17.408t-18.432 7.168-18.432-7.168-7.168-17.408v-256q0-12.288-7.168-19.456t-18.432-7.168-18.432 7.168-7.168 17.408v258.048q0 10.24-7.168 17.408t-17.408 7.168zM180.224 324.267q10.24 0 17.408-7.168t7.168-17.408v-26.624h26.624q10.24 0 17.408-7.168t7.168-18.432-7.168-18.432-19.456-7.168h-24.576v-24.576q0-12.288-7.168-19.456t-18.432-7.168-18.432 7.168-7.168 19.456v24.576h-24.576q-12.288 0-19.456 7.168t-7.168 18.432 7.168 18.432 19.456 7.168h24.576v26.624q0 10.24 7.168 17.408t19.456 7.168zM333.824 170.667q10.24 0 17.408-7.168t7.168-19.456v-24.576h26.624q10.24 0 17.408-7.168t7.168-18.432-7.168-18.432-17.408-7.168h-26.624v-24.576q0-12.288-7.168-19.456t-18.432-7.168-18.432 7.168-7.168 19.456v24.576h-24.576q-12.288 0-19.456 7.168t-7.168 18.432 7.168 18.432 19.456 7.168h24.576v26.624q0 10.24 7.168 17.408t17.408 7.168h2.048z" />
<glyph unicode="&#xe923;" glyph-name="ic_fluent_comment_multiple_32_regular" data-tags="ic_fluent_comment_multiple_32_regular" d="M208.896 711.339v4.096q0 53.248 36.864 90.112t90.112 36.864h385.024q86.016 0 146.432-60.416t60.416-146.432v-241.664q0-53.248-36.864-90.112t-90.112-36.864v-16.384q0-59.392-43.008-101.376t-102.4-41.984h-180.224l-141.312-116.736q-22.528-20.48-50.176-7.168t-27.648 44.032v79.872h-32.768q-53.248 0-90.112 36.864t-36.864 90.112v335.872q0 51.2 31.744 90.112t80.896 51.2zM272.384 715.435h382.976q59.392 0 102.4-43.008t43.008-102.4v-239.616q26.624 0 45.056 18.432t18.432 45.056v241.664q0 59.392-41.984 101.376t-101.376 41.984h-385.024q-26.624 0-45.056-18.432t-18.432-45.056zM239.616 649.899q-32.768 0-56.32-23.552t-23.552-56.32v-335.872q0-26.624 18.432-45.056t45.056-18.432h65.536q12.288 0 21.504-9.216t9.216-23.552v-77.824l124.928 102.4q8.192 8.192 20.48 8.192h190.464q32.768 0 56.32 23.552t23.552 56.32v319.488q0 32.768-23.552 56.32t-56.32 23.552h-415.744z" />
<glyph unicode="&#xe924;" glyph-name="ic_fluent_building_factory_48_filled" data-tags="ic_fluent_building_factory_48_filled" d="M118.784 772.779q2.048 36.864 28.672 61.44t63.488 24.576h69.632q36.864 0 62.464-24.576t27.648-61.44l36.864-677.888q2.048-38.912-24.576-66.56t-65.536-27.648h-143.36q-38.912 0-65.536 27.648t-24.576 66.56zM413.696 0.683q38.912 40.96 36.864 96.256l-24.576 432.128 194.56 194.56q12.288 12.288 29.696 5.12t17.408-25.6v-212.992l231.424 233.472q12.288 12.288 28.672 5.12t16.384-25.6l-4.096-591.872q-2.048-47.104-34.816-78.848t-77.824-31.744h-413.696zM800.768 53.931v206.848q0 16.384-11.264 27.648t-27.648 9.216h-169.984q-14.336 0-25.6-10.24t-11.264-26.624v-206.848h245.76z" />
<glyph unicode="&#xe925;" glyph-name="ic_fluent_contact_card_ribbon_16_regular" data-tags="ic_fluent_contact_card_ribbon_16_regular" d="M63.488 635.563q0 45.056 32.768 77.824t79.872 32.768h671.744q47.104 0 79.872-32.768t32.768-77.824v-114.688q-30.72 16.384-65.536 26.624v88.064q0 18.432-13.312 32.768t-33.792 14.336h-671.744q-20.48 0-34.816-14.336t-14.336-32.768v-417.792q2.048-18.432 15.36-32.768t33.792-14.336h434.176q12.288-22.528 30.72-40.96v-22.528h-464.896q-47.104 0-79.872 32.768t-32.768 77.824v417.792zM800.768 555.691q4.096 0 8.192-2.048-83.968-8.192-145.408-63.488h-55.296q-14.336 0-23.552 9.216t-9.216 22.528 9.216 23.552 23.552 10.24h192.512zM335.872 445.099q36.864 0 62.464 25.6t25.6 61.44-25.6 61.44-61.44 25.6-61.44-25.6-25.6-61.44 25.6-61.44 60.416-25.6zM247.808 402.091q-24.576 0-39.936-16.384t-15.36-38.912q0-36.864 22.528-65.536t57.344-38.912h4.096q59.392-14.336 120.832 0h4.096q34.816 10.24 57.344 38.912t22.528 65.536q0 22.528-16.384 38.912t-38.912 16.384h-178.176zM1024 299.691q0-79.872-56.32-136.192t-136.192-56.32-135.168 56.32-55.296 135.168 55.296 135.168 135.168 56.32 136.192-56.32 56.32-134.144zM960.512 76.459q-59.392-34.816-128-34.816t-128 34.816v-145.408q0-10.24 8.192-14.336t16.384 0l102.4 61.44 104.448-61.44q8.192-4.096 16.384 0t8.192 14.336v145.408z" />
<glyph unicode="&#xe926;" glyph-name="ic_fluent_megaphone_loud_24_regular" data-tags="ic_fluent_megaphone_loud_24_regular" d="M735.232 842.411q4.096 14.336-2.048 25.6t-18.432 15.36-24.576-2.048-16.384-18.432l-32.768-96.256q-4.096-12.288 2.048-23.552t18.432-15.36 24.576 1.024 16.384 19.456zM929.792 844.459q8.192-10.24 8.192-23.552t-8.192-21.504l-106.496-106.496q-14.336-14.336-32.768-10.24t-22.528 22.528 10.24 32.768l106.496 106.496q8.192 8.192 21.504 8.192t23.552-8.192zM387.072 754.347q10.24 22.528 30.72 36.864t44.032 18.432 47.104-4.096 39.936-26.624l299.008-319.488q16.384-18.432 23.552-41.984t2.048-47.104-20.48-41.984-37.888-28.672l-145.408-63.488q28.672-65.536 3.072-130.048t-90.112-93.184-130.048-4.096-94.208 88.064l-61.44-26.624q-20.48-8.192-44.032-5.12t-39.936 19.456l-61.44 57.344q-18.432 18.432-22.528 43.008t6.144 47.104zM415.744 123.563q18.432-38.912 59.392-54.272t80.896 2.048 55.296 58.368-1.024 79.872zM501.76 735.915q-12.288 12.288-30.72 10.24t-26.624-20.48l-251.904-522.24q-4.096-8.192 4.096-14.336l61.44-57.344q6.144-6.144 12.288-2.048l520.192 229.376q16.384 6.144 19.456 24.576t-9.216 30.72zM811.008 586.411q0 14.336 9.216 23.552t21.504 9.216h86.016q14.336 0 23.552-9.216t9.216-22.528-9.216-23.552-23.552-10.24h-86.016q-12.288 2.048-21.504 11.264t-9.216 21.504z" />
<glyph unicode="&#xe927;" glyph-name="ic_fluent_megaphone_loud_24_filled" data-tags="ic_fluent_megaphone_loud_24_filled" d="M735.232 842.411q4.096 14.336-2.048 25.6t-18.432 15.36-24.576-2.048-16.384-18.432l-32.768-96.256q-4.096-12.288 2.048-23.552t18.432-15.36 24.576 1.024 16.384 19.456zM929.792 844.459q8.192-10.24 8.192-23.552t-8.192-21.504l-106.496-106.496q-14.336-14.336-32.768-10.24t-22.528 22.528 10.24 32.768l106.496 106.496q8.192 8.192 21.504 8.192t23.552-8.192zM548.864 778.923q-16.384 18.432-39.936 26.624t-47.104 4.096-44.032-18.432-30.72-36.864l-251.904-522.24q-10.24-22.528-6.144-47.104t22.528-43.008l61.44-57.344q16.384-16.384 39.936-19.456t44.032 5.12l61.44 26.624q28.672-63.488 94.208-88.064t130.048 4.096 90.112 93.184-3.072 130.048l145.408 63.488q22.528 10.24 37.888 28.672t20.48 41.984-2.048 47.104-23.552 41.984zM610.304 209.579q16.384-38.912 1.024-78.848t-55.296-58.368-80.896-3.072-59.392 54.272zM811.008 586.411q0 14.336 9.216 23.552t21.504 9.216h86.016q14.336 0 23.552-9.216t9.216-22.528-9.216-23.552-23.552-10.24h-86.016q-12.288 2.048-21.504 11.264t-9.216 21.504z" />
<glyph unicode="&#xe928;" glyph-name="ic_fluent_app_recent_20_filled" data-tags="ic_fluent_app_recent_20_filled" d="M358.4 836.267q-43.008 0-72.704-29.696t-29.696-72.704v-614.4q0-43.008 29.696-72.704t72.704-29.696h307.2q43.008 0 72.704 29.696t29.696 72.704v614.4q0 43.008-29.696 72.704t-72.704 29.696h-307.2zM102.4 631.467q0 43.008 29.696 72.704t72.704 29.696v-614.4q-43.008 0-72.704 29.696t-29.696 72.704v409.6zM819.2 119.467v614.4q43.008 0 72.704-29.696t29.696-72.704v-409.6q0-43.008-29.696-72.704t-72.704-29.696z" />
<glyph unicode="&#xe929;" glyph-name="ic_fluent_app_title_20_filled" data-tags="ic_fluent_app_title_20_filled" d="M358.4 785.067q-63.488 0-108.544-45.056t-45.056-108.544v-307.2q0-63.488 45.056-108.544t108.544-45.056h307.2q63.488 0 108.544 45.056t45.056 108.544v307.2q0 63.488-45.056 108.544t-108.544 45.056h-307.2zM231.424 68.267q-12.288 0-19.456-7.168t-7.168-18.432 7.168-18.432 19.456-7.168h563.2q10.24 0 17.408 7.168t7.168 18.432-7.168 18.432-17.408 7.168h-563.2z" />
<glyph unicode="&#xe92a;" glyph-name="ic_fluent_emoji_sad_slight_24_regular" data-tags="ic_fluent_emoji_sad_slight_24_regular" d="M438.272 512.683q0 20.48-16.384 36.864t-37.888 16.384-37.888-16.384-16.384-37.888 16.384-36.864 37.888-15.36 37.888 15.36 16.384 37.888zM694.272 512.683q0 20.48-16.384 36.864t-37.888 16.384-37.888-16.384-16.384-37.888 16.384-36.864 37.888-15.36 37.888 15.36 16.384 37.888zM671.744 340.651q-51.2 0-107.52-21.504t-84.992-50.176q-14.336-14.336-9.216-32.768t22.528-22.528 31.744 8.192q20.48 20.48 64.512 37.888t82.944 17.408h26.624q12.288 0 21.504 9.216t9.216 22.528-9.216 22.528-21.504 9.216h-26.624zM937.984 426.667q0 116.736-57.344 214.016t-154.624 154.624-214.016 57.344-214.016-57.344-154.624-154.624-57.344-214.016 57.344-214.016 154.624-154.624 214.016-57.344 214.016 57.344 154.624 154.624 57.344 214.016zM149.504 426.667q-2.048 98.304 47.104 183.296t133.12 134.144 182.272 49.152 182.272-49.152 133.12-134.144 48.128-183.296-50.176-180.224-132.096-130.048-181.248-48.128-181.248 48.128-132.096 130.048-49.152 180.224z" />
<glyph unicode="&#xe92b;" glyph-name="ic_fluent_emoji_smile_slight_24_regular" data-tags="ic_fluent_emoji_smile_slight_24_regular" d="M438.272 512.683q0 20.48-16.384 36.864t-37.888 16.384-37.888-16.384-16.384-37.888 16.384-36.864 37.888-15.36 37.888 15.36 16.384 37.888zM694.272 512.683q0 20.48-16.384 36.864t-37.888 16.384-37.888-16.384-16.384-37.888 16.384-36.864 37.888-15.36 37.888 15.36 16.384 37.888zM432.128 293.547q-16.384 10.24-32.768 1.024t-16.384-27.648 16.384-28.672q47.104-26.624 112.64-26.624t112.64 26.624q10.24 8.192 13.312 20.48t-3.072 23.552-19.456 15.36-23.552-4.096q-32.768-18.432-79.872-18.432t-79.872 18.432zM937.984 426.667q0 116.736-57.344 214.016t-154.624 154.624-214.016 57.344-214.016-57.344-154.624-154.624-57.344-214.016 57.344-214.016 154.624-154.624 214.016-57.344 214.016 57.344 154.624 154.624 57.344 214.016zM149.504 426.667q-2.048 98.304 47.104 183.296t133.12 134.144 182.272 49.152 182.272-49.152 133.12-134.144 48.128-183.296-50.176-180.224-132.096-130.048-181.248-48.128-181.248 48.128-132.096 130.048-49.152 180.224z" />
<glyph unicode="&#xe92c;" glyph-name="ic_fluent_beach_32_regular" data-tags="ic_fluent_beach_32_regular" d="M817.152 836.267q-67.584 38.912-144.384 38.912t-143.36-37.888-105.472-105.472l-10.24-18.432q-6.144-8.192-3.072-19.456t13.312-17.408l202.752-116.736-120.832-210.944h-4.096q-86.016 0-161.792-45.056-71.68-43.008-118.784-116.736 34.816 10.24 63.488-6.144 40.96 51.2 98.304 81.92t121.856 30.72 122.88-32.768 99.328-90.112q22.528 20.48 53.248 20.48-36.864 57.344-93.184 97.28t-121.856 54.272l110.592 190.464 196.608-112.64q10.24-6.144 21.504-3.072t17.408 13.312l10.24 18.432q38.912 65.536 38.912 141.312t-37.888 141.312-105.472 104.448zM735.232 563.883l-118.784 65.536q32.768 49.152 66.56 79.872t89.088 61.44q10.24-53.248 4.096-94.208-6.144-51.2-40.96-112.64zM782.336 535.211q43.008 71.68 49.152 135.168 6.144 38.912 0 86.016 57.344-51.2 69.632-128t-24.576-146.432zM645.12 750.251q-40.96-36.864-77.824-92.16l-92.16 53.248q40.96 63.488 112.64 91.136t145.408 9.216q-53.248-30.72-88.064-61.44zM272.384 125.611q-2.048 8.192-10.24 13.312t-17.408 5.12-16.384-6.144-9.216-14.336q-12.288-51.2-47.104-71.68-30.72-18.432-79.872-18.432-12.288 0-20.48-8.192t-8.192-19.456 8.192-19.456 20.48-8.192q65.536 0 108.544 26.624 30.72 18.432 49.152 47.104 32.768-40.96 81.92-55.296t98.304 1.024 81.92 56.32q32.768-43.008 82.944-57.344t100.352 1.024 80.896 58.368q28.672-36.864 69.632-57.344t86.016-20.48q12.288 0 20.48 8.192t8.192 19.456-8.192 19.456-20.48 8.192q-43.008 0-78.848 25.6t-50.176 66.56q-2.048 8.192-9.216 13.312t-16.384 5.12-16.384-5.12-11.264-13.312q-16.384-51.2-60.416-70.656t-89.088-1.024-61.44 67.584q-6.144 18.432-26.624 18.432t-26.624-18.432q-16.384-49.152-61.44-67.584t-89.088 1.024-62.464 70.656z" />
<glyph unicode="&#xe92d;" glyph-name="ic_fluent_beach_32_filled" data-tags="ic_fluent_beach_32_filled" d="M817.152 836.267q-67.584 38.912-144.384 38.912t-143.36-37.888-105.472-105.472l-10.24-18.432q-6.144-8.192-3.072-19.456t13.312-17.408l202.752-116.736-120.832-210.944h-4.096q-86.016 0-161.792-45.056-71.68-43.008-118.784-116.736 34.816 10.24 63.488-6.144 40.96 51.2 98.304 81.92t121.856 30.72 122.88-32.768 99.328-90.112q22.528 20.48 53.248 20.48-36.864 57.344-93.184 97.28t-121.856 54.272l110.592 190.464 196.608-112.64q10.24-6.144 21.504-3.072t17.408 13.312l10.24 18.432q38.912 65.536 38.912 141.312t-37.888 141.312-105.472 104.448zM272.384 125.611q-2.048 8.192-10.24 13.312t-17.408 5.12-16.384-6.144-9.216-14.336q-12.288-51.2-47.104-71.68-30.72-18.432-79.872-18.432-12.288 0-20.48-8.192t-8.192-19.456 8.192-19.456 20.48-8.192q65.536 0 108.544 26.624 30.72 18.432 49.152 47.104 32.768-40.96 81.92-55.296t98.304 1.024 81.92 56.32q32.768-43.008 82.944-57.344t100.352 1.024 80.896 58.368q28.672-36.864 69.632-57.344t86.016-20.48q12.288 0 20.48 8.192t8.192 19.456-8.192 19.456-20.48 8.192q-43.008 0-78.848 25.6t-50.176 66.56q-2.048 8.192-9.216 13.312t-16.384 5.12-16.384-5.12-11.264-13.312q-16.384-51.2-60.416-70.656t-89.088-1.024-61.44 67.584q-6.144 18.432-26.624 18.432t-26.624-18.432q-16.384-49.152-61.44-67.584t-89.088 1.024-62.464 70.656z" />
<glyph unicode="&#xe92e;" glyph-name="ic_fluent_building_government_20_filled" data-tags="ic_fluent_building_government_20_filled" d="M487.424 836.267q-12.288 0-19.456-7.168t-7.168-17.408v-133.12q-90.112-18.432-147.456-89.088t-57.344-162.816v-51.2h-51.2q-43.008 0-72.704-29.696t-29.696-72.704v-204.8q0-20.48 15.36-35.84t35.84-15.36h231.424q10.24 0 17.408 7.168t7.168 17.408v104.448q0 10.24 7.168 17.408t17.408 7.168h155.648q10.24 0 17.408-7.168t7.168-19.456v-100.352q0-12.288 7.168-19.456t17.408-7.168h231.424q20.48 0 35.84 15.36t15.36 35.84v204.8q0 43.008-29.696 72.704t-72.704 29.696h-51.2v51.2q0 69.632-34.816 128t-93.184 93.184-128 34.816v51.2h129.024q10.24 0 17.408 7.168t7.168 17.408v53.248q0 10.24-7.168 17.408t-17.408 7.168h-153.6zM307.2 248.491v-102.4q0-12.288-7.168-19.456t-18.432-7.168-18.432 7.168-7.168 19.456v102.4q0 10.24 7.168 17.408t18.432 7.168 18.432-7.168 7.168-17.408zM743.424 273.067q10.24 0 17.408-7.168t7.168-17.408v-102.4q0-12.288-7.168-19.456t-18.432-7.168-18.432 7.168-7.168 19.456v102.4q0 10.24 7.168 17.408t17.408 7.168h2.048zM460.8 453.291v-102.4q0-12.288-7.168-19.456t-18.432-7.168-18.432 7.168-7.168 17.408v104.448q0 10.24 7.168 17.408t18.432 7.168 18.432-7.168 7.168-17.408zM589.824 477.867q10.24 0 17.408-7.168t7.168-17.408v-102.4q0-12.288-7.168-19.456t-18.432-7.168-18.432 7.168-7.168 17.408v104.448q0 10.24 7.168 17.408t17.408 7.168h2.048z" />
<glyph unicode="&#xe92f;" glyph-name="ic_fluent_building_multiple_20_filled" data-tags="ic_fluent_building_multiple_20_filled" d="M204.8 836.267q-43.008 0-72.704-29.696t-29.696-72.704v-665.6q0-20.48 15.36-35.84t35.84-15.36h385.024q10.24 0 17.408 7.168t7.168 17.408v104.448q0 10.24 7.168 17.408t17.408 7.168h155.648q10.24 0 17.408-7.168t7.168-19.456v-100.352q0-12.288 7.168-19.456t17.408-7.168h77.824q20.48 0 35.84 15.36t15.36 35.84v512q0 43.008-29.696 72.704t-72.704 29.696h-204.8v51.2q0 43.008-29.696 72.704t-72.704 29.696h-307.2zM563.2 682.667h-51.2q-43.008 0-72.704-29.696t-29.696-72.704v-512h-256v665.6q0 20.48 15.36 35.84t35.84 15.36h307.2q20.48 0 35.84-15.36t15.36-35.84v-51.2zM268.288 453.291q16.384 0 27.648 10.24t11.264 26.624-11.264 27.648-27.648 11.264-26.624-11.264-11.264-27.648 10.24-27.648 27.648-11.264v2.048zM307.2 643.755q0-16.384-11.264-27.648t-27.648-10.24-26.624 11.264-11.264 26.624 10.24 27.648 27.648 11.264 27.648-11.264 11.264-27.648zM268.288 146.091q16.384-2.048 27.648 9.216t11.264 27.648-11.264 27.648-27.648 11.264-27.648-11.264-11.264-27.648 11.264-27.648 27.648-9.216zM307.2 336.555q0-16.384-11.264-27.648t-27.648-10.24-27.648 11.264-11.264 26.624 11.264 27.648 27.648 11.264 27.648-11.264 11.264-27.648zM575.488 453.291q-16.384 0-27.648 10.24t-10.24 26.624 11.264 27.648 26.624 11.264 27.648-11.264 11.264-27.648-11.264-27.648-27.648-11.264v2.048zM614.4 336.555q0-16.384-11.264-27.648t-27.648-10.24-27.648 11.264-10.24 26.624 11.264 27.648 26.624 11.264 27.648-11.264 11.264-27.648zM755.712 453.291q-16.384 0-27.648 10.24t-11.264 26.624 11.264 27.648 27.648 11.264 27.648-11.264 11.264-27.648-11.264-27.648-27.648-11.264v2.048zM794.624 336.555q0-16.384-11.264-27.648t-27.648-10.24-27.648 11.264-11.264 26.624 11.264 27.648 27.648 11.264 27.648-11.264 11.264-27.648z" />
<glyph unicode="&#xe930;" glyph-name="ic_fluent_draw_image_20_filled" data-tags="ic_fluent_draw_image_20_filled" d="M307.2 785.067q-63.488 0-108.544-45.056t-45.056-108.544v-464.896q0-16.384 16.384-23.552t28.672 5.12l260.096 256q22.528 22.528 53.248 22.528t53.248-22.528l90.112-88.064 118.784 118.784q38.912 40.96 96.256 43.008v153.6q0 63.488-45.056 108.544t-108.544 45.056h-409.6zM716.8 555.691q0-32.768-22.528-55.296t-54.272-22.528-54.272 22.528-22.528 54.272 22.528 54.272 54.272 22.528 54.272-22.528 22.528-55.296v2.048zM665.6 555.691q0-12.288-7.168-19.456t-18.432-7.168-18.432 7.168-7.168 18.432 7.168 18.432 18.432 7.168 18.432-7.168 7.168-17.408zM526.336 187.051l92.16 94.208-88.064 86.016q-8.192 8.192-18.432 8.192t-18.432-8.192l-215.040-212.992q-10.24-8.192-4.096-18.432t18.432-6.144l16.384 6.144q86.016 30.72 141.312 8.192 20.48-8.192 34.816-24.576 12.288 38.912 40.96 67.584zM563.2 152.235l245.76 245.76q28.672 28.672 68.608 28.672t67.584-27.648 27.648-67.584-28.672-68.608l-245.76-247.808q-22.528-20.48-53.248-28.672l-61.44-16.384q-43.008-12.288-96.256-9.216t-73.728 19.456q-16.384 12.288-19.456 30.72t3.072 32.768q0 4.096-1.024 7.168t-5.12 1.024q-24.576-2.048-65.536-20.48v0q-30.72-14.336-47.104-18.432-26.624-6.144-55.296-4.096-45.056 6.144-67.584 43.008-4.096 8.192 3.072 13.312t15.36 1.024q36.864-18.432 61.44-12.288 14.336 2.048 49.152 18.432 49.152 18.432 73.728 26.624 43.008 10.24 73.728-2.048 20.48-8.192 24.576-29.696t-4.096-37.888q-2.048-4.096-1.024-6.144t3.072-4.096q28.672-4.096 57.344-4.096l20.48 83.968q8.192 30.72 30.72 53.248z" />
<glyph unicode="&#xe931;" glyph-name="ic_fluent_emoji_sparkle_16_regular" data-tags="ic_fluent_emoji_sparkle_16_regular" d="M882.688 797.355v0l-49.152 16.384q-22.528 6.144-39.936 23.552t-23.552 39.936l-16.384 49.152q-4.096 12.288-18.432 12.288t-18.432-12.288l-16.384-49.152q-14.336-47.104-63.488-63.488l-49.152-16.384q-4.096-2.048-9.216-8.192t-2.048-15.36 11.264-13.312l55.296-18.432q40.96-16.384 57.344-57.344l16.384-53.248q6.144-12.288 18.432-12.288h2.048q12.288 0 16.384 12.288l16.384 49.152q8.192 22.528 24.576 38.912t38.912 24.576l49.152 16.384q12.288 4.096 12.288 17.408t-12.288 19.456zM972.8 582.315l40.96-12.288q10.24-4.096 10.24-15.36t-10.24-15.36l-38.912-12.288q-38.912-12.288-51.2-51.2l-12.288-38.912q-4.096-10.24-15.36-10.24t-15.36 10.24l-12.288 38.912q-12.288 38.912-51.2 51.2l-38.912 12.288q-10.24 4.096-10.24 15.36t10.24 15.36l38.912 12.288q38.912 12.288 51.2 51.2l12.288 38.912q4.096 10.24 14.336 10.24t14.336-10.24l12.288-38.912q14.336-38.912 51.2-51.2zM516.096 754.347q0-4.096 2.048-8.192h-6.144q-86.016 0-157.696-40.96t-115.712-112.64-46.080-156.672 36.864-158.72 108.544-118.784 154.624-50.176 159.744 31.744 122.88 104.448 56.32 153.6q20.48-32.768 59.392-34.816-16.384-96.256-76.8-172.032t-148.48-114.688-185.344-30.72-178.176 60.416-126.976 137.216-48.128 183.296q0 77.824 30.72 148.48t84.992 124.928 125.952 82.944 149.504 26.624q-12.288-26.624-2.048-55.296zM399.36 443.051q20.48 0 34.816 14.336t14.336 33.792-14.336 33.792-33.792 14.336-33.792-14.336-14.336-33.792 14.336-33.792 32.768-14.336zM393.216 320.171q-12.288 14.336-30.72 10.24t-24.576-21.504 6.144-31.744q32.768-34.816 76.8-54.272t91.136-19.456 91.136 19.456 76.8 54.272q8.192 10.24 7.168 23.552t-11.264 21.504-22.528 8.192-22.528-10.24q-22.528-26.624-53.248-39.936t-65.536-13.312q-71.68 0-118.784 53.248zM671.744 490.155q0-18.432-14.336-32.768t-33.792-14.336-33.792 14.336-14.336 33.792 14.336 33.792 33.792 14.336 33.792-14.336 14.336-34.816z" />
<glyph unicode="&#xe932;" glyph-name="ic_fluent_flip_vertical_20_regular" data-tags="ic_fluent_flip_vertical_20_regular" d="M806.912 832.171q12.288-8.192 12.288-22.528v-305.152q0-12.288-7.168-19.456t-17.408-7.168h-665.6q-10.24 0-17.408 6.144t-9.216 14.336 2.048 16.384 12.288 12.288l665.6 307.2q12.288 6.144 24.576-2.048zM243.712 529.067h524.288v241.664zM819.2 43.691q0-14.336-12.288-22.528t-24.576-2.048l-665.6 307.2q-8.192 4.096-12.288 12.288t-2.048 16.384 9.216 14.336 15.36 6.144h667.648q10.24 0 17.408-7.168t7.168-17.408v-307.2z" />
<glyph unicode="&#xe933;" glyph-name="ic_fluent_food_grains_24_regular" data-tags="ic_fluent_food_grains_24_regular" d="M485.376 840.363q-61.44-53.248-88.064-131.072t-12.288-157.696q-92.16 53.248-219.136 40.96-16.384 0-27.648-13.312t-9.216-29.696q4.096-55.296 27.648-107.52t60.416-97.28q-26.624 0-53.248-2.048-16.384-2.048-26.624-14.336t-8.192-28.672q6.144-83.968 51.2-152.576t116.736-107.52 155.648-38.912h118.784q83.968 0 155.648 38.912t116.736 107.52 51.2 152.576q2.048 16.384-8.192 28.672t-26.624 14.336q-26.624 2.048-53.248 2.048 36.864 45.056 60.416 97.28t27.648 107.52q2.048 16.384-9.216 29.696t-27.648 13.312q-126.976 12.288-219.136-40.96 14.336 79.872-12.288 157.696t-88.064 131.072q-12.288 10.24-26.624 10.24t-26.624-10.24zM512 438.955q-45.056 45.056-60.416 107.52t0 123.904 60.416 106.496q45.056-45.056 60.416-106.496t0-123.904-60.416-107.52zM512 199.339q-71.68 90.112-180.224 126.976l-4.096 4.096q-49.152 32.768-84.992 87.040t-46.080 113.664q59.392 2.048 107.52-13.312t91.136-52.224q28.672-24.576 49.152-59.392 12.288-18.432 28.672-55.296l10.24-24.576q8.192-16.384 28.672-16.384t28.672 16.384l10.24 24.576q16.384 36.864 28.672 55.296 20.48 34.816 49.152 59.392 43.008 36.864 91.136 52.224t109.568 13.312q-12.288-59.392-48.128-113.664t-82.944-87.040l-4.096-4.096q-110.592-36.864-182.272-126.976zM538.624 125.611q45.056 75.776 123.904 117.76t166.912 37.888q-16.384-94.208-89.088-155.648t-168.96-61.44h-118.784q-96.256 0-168.96 61.44t-89.088 155.648q88.064 4.096 166.912-37.888t123.904-117.76q8.192-14.336 26.624-14.336t26.624 14.336z" />
<glyph unicode="&#xe934;" glyph-name="ic_fluent_gift_card_arrow_right_24_regular" data-tags="ic_fluent_gift_card_arrow_right_24_regular" d="M86.016 725.675q0 53.248 36.864 90.112t90.112 36.864h598.016q53.248 0 90.112-36.864t36.864-90.112v-333.824q-28.672 28.672-63.488 47.104v94.208h-423.936l73.728-73.728q14.336-12.288 9.216-30.72t-23.552-23.552-30.72 9.216l-73.728 73.728v-210.944h77.824q-10.24-30.72-12.288-63.488h-258.048q-53.248 0-90.112 36.864t-36.864 90.112v385.024zM212.992 789.163q-26.624 0-45.056-18.432t-18.432-45.056v-129.024h51.2q-12.288 30.72-6.144 63.488t28.672 55.296 55.296 28.672 63.488-6.144v51.2h-129.024zM405.504 789.163v-51.2q30.72 12.288 62.464 6.144t55.296-28.672 29.696-55.296-8.192-63.488h329.728v129.024q0 26.624-18.432 45.056t-45.056 18.432h-405.504zM342.016 277.163v210.944l-73.728-73.728q-10.24-8.192-22.528-8.192t-21.504 9.216-10.24 22.528 9.216 21.504l73.728 73.728h-147.456v-192.512q0-26.624 18.432-45.056t45.056-18.432h129.024zM448.512 596.651q12.288 0 23.552 7.168t15.36 19.456 2.048 24.576-11.264 21.504-21.504 12.288-24.576-2.048-19.456-16.384-7.168-23.552v-43.008h43.008zM342.016 639.659q0 18.432-13.312 30.72t-30.72 12.288-29.696-12.288-12.288-29.696 12.288-30.72 30.72-13.312h43.008v43.008zM980.992 191.147q0-61.44-31.744-115.712t-86.016-86.016-116.736-31.744-116.736 31.744-86.016 86.016-31.744 117.76 31.744 116.736 84.992 84.992 117.76 31.744 117.76-31.744 84.992-84.992 31.744-118.784zM618.496 213.675q-8.192 0-14.336-6.144t-6.144-15.36 6.144-15.36 14.336-6.144h204.8l-69.632-69.632q-6.144-6.144-6.144-15.36t6.144-15.36 14.336-6.144 14.336 6.144l106.496 106.496q8.192 6.144 8.192 15.36t-8.192 15.36l-106.496 106.496q-6.144 6.144-14.336 6.144t-14.336-6.144-6.144-15.36 6.144-15.36l69.632-69.632h-204.8z" />
<glyph unicode="&#xe935;" glyph-name="ic_fluent_food_grains_20_filled" data-tags="ic_fluent_food_grains_20_filled" d="M534.528 826.027q-10.24 8.192-22.528 8.192t-22.528-8.192q-47.104-43.008-72.704-101.376t-25.6-121.856q0-14.336 12.288-22.528 51.2-28.672 90.112-71.68 6.144-8.192 18.432-8.192t18.432 8.192q38.912 43.008 90.112 71.68 12.288 8.192 12.288 22.528 0 63.488-25.6 121.856t-72.704 101.376zM153.6 314.027q0 14.336 9.216 24.576t23.552 12.288q104.448 8.192 194.56-46.080t131.072-150.528q40.96 96.256 131.072 150.528t194.56 46.080q14.336-2.048 23.552-12.288t9.216-24.576q-8.192-83.968-53.248-151.552t-116.736-106.496-155.648-38.912h-24.576l-8.192 2.048q-4.096-2.048-8.192-2.048h-24.576q-83.968 0-155.648 38.912t-116.736 106.496-53.248 151.552zM512 383.659q-40.96 98.304-131.072 152.576t-194.56 44.032q-14.336 0-23.552-11.264t-9.216-25.6q6.144-67.584 40.96-126.976 6.144-14.336 20.48-14.336 79.872 0 151.552-31.744t124.928-91.136q8.192-8.192 20.48-8.192t20.48 8.192q53.248 59.392 124.928 91.136t151.552 31.744q14.336 0 20.48 14.336 34.816 59.392 40.96 126.976 0 14.336-9.216 25.6t-23.552 11.264q-104.448 10.24-194.56-44.032t-131.072-152.576z" />
<glyph unicode="&#xe936;" glyph-name="ic_fluent_video_clip_multiple_16_regular" data-tags="ic_fluent_video_clip_multiple_16_regular" d="M385.024 619.179l-2.048-256q0-20.48 17.408-28.672t33.792 2.048l190.464 126.976q14.336 10.24 14.336 27.648t-14.336 25.6l-190.464 129.024q-16.384 10.24-32.768 1.024t-16.384-27.648zM129.024 666.283q0 59.392 41.984 102.4t101.376 43.008h415.744q59.392 0 101.376-43.008t41.984-102.4v-352.256q0-59.392-41.984-101.376t-101.376-41.984h-415.744q-59.392 0-102.4 41.984t-43.008 101.376v352.256h2.048zM272.384 746.155q-32.768 0-56.32-23.552t-23.552-56.32v-352.256q0-32.768 23.552-56.32t56.32-23.552h415.744q32.768 0 56.32 23.552t23.552 56.32v352.256q0 32.768-23.552 56.32t-56.32 23.552h-415.744zM256 107.179q22.528-30.72 56.32-47.104t72.704-16.384h335.872q47.104 0 91.136 17.408t77.824 51.2 52.224 77.824 18.432 93.184v272.384q0 36.864-17.408 70.656t-46.080 56.32v-399.36q0-73.728-52.224-124.928t-123.904-51.2h-464.896z" />
<glyph unicode="&#xe937;" glyph-name="ic_fluent_video_clip_multiple_16_filled" data-tags="ic_fluent_video_clip_multiple_16_filled" d="M272.384 811.691q-59.392 0-102.4-43.008t-43.008-102.4v-352.256q2.048-59.392 44.032-101.376t101.376-41.984h415.744q59.392 0 101.376 41.984t41.984 101.376v352.256q0 59.392-41.984 102.4t-101.376 43.008h-415.744zM385.024 363.179v256q-2.048 18.432 15.36 27.648t33.792-1.024l190.464-129.024q14.336-8.192 14.336-25.6t-14.336-27.648l-190.464-126.976q-16.384-10.24-33.792-1.024t-17.408 27.648h2.048zM385.024 43.691q-38.912-2.048-72.704 15.36t-56.32 48.128h464.896q71.68 0 123.904 51.2t50.176 124.928v399.36q30.72-22.528 48.128-56.32t17.408-70.656v-272.384q0-49.152-18.432-93.184t-52.224-77.824-77.824-52.224-91.136-18.432h-335.872v2.048z" />
<glyph unicode="&#xe938;" glyph-name="ic_fluent_camera_off_20_regular" data-tags="ic_fluent_camera_off_20_regular" d="M180.224 723.627l-69.632 69.632q-8.192 6.144-8.192 17.408t7.168 18.432 18.432 7.168 17.408-8.192l768-768q8.192-6.144 8.192-17.408t-7.168-18.432-18.432-7.168-17.408 8.192l-49.152 47.104q-18.432-4.096-34.816-4.096h-563.2q-53.248 0-91.136 37.888t-37.888 89.088v411.648q0 36.864 20.48 68.608t57.344 48.128zM782.336 119.467l-145.408 145.408q-61.44-47.104-138.24-41.984t-131.072 59.392-59.392 131.072 41.984 138.24l-129.024 131.072q-28.672-4.096-48.128-25.6t-19.456-50.176v-409.6q0-32.768 22.528-55.296t55.296-22.528h550.912zM600.064 301.739l-212.992 212.992q-32.768-45.056-27.648-101.376t44.032-96.256 95.232-44.032 101.376 28.672zM432.128 615.083l40.96-40.96q38.912 12.288 78.848 1.024t68.608-39.936 39.936-68.608-1.024-78.848l40.96-40.96q24.576 57.344 12.288 118.784t-56.32 105.472-105.472 56.32-118.784-12.288zM870.4 197.291q0-10.24-2.048-18.432l40.96-38.912q12.288 26.624 12.288 55.296v411.648q0 51.2-36.864 89.088t-90.112 37.888h-88.064l-28.672 59.392q-10.24 20.48-28.672 31.744t-40.96 11.264h-192.512q-22.528 0-40.96-11.264t-26.624-31.744l-30.72-59.392h-4.096l40.96-40.96 38.912 77.824q6.144 14.336 22.528 14.336h192.512q16.384 0 22.528-14.336l36.864-73.728q8.192-14.336 24.576-14.336h102.4q30.72 0 53.248-22.528t22.528-53.248v-409.6z" />
<glyph unicode="&#xe939;" glyph-name="ic_fluent_camera_off_20_filled" data-tags="ic_fluent_camera_off_20_filled" d="M180.224 723.627l-69.632 69.632q-8.192 6.144-8.192 17.408t7.168 18.432 18.432 7.168 17.408-8.192l768-768q8.192-6.144 8.192-17.408t-7.168-18.432-18.432-7.168-17.408 8.192l-49.152 47.104q-18.432-4.096-34.816-4.096h-563.2q-53.248 0-91.136 37.888t-37.888 89.088v411.648q0 36.864 20.48 68.608t57.344 48.128zM636.928 264.875l-36.864 36.864q-45.056-32.768-101.376-27.648t-96.256 44.032-44.032 95.232 28.672 101.376l-36.864 36.864q-47.104-61.44-43.008-138.24t59.392-132.096 132.096-59.392 138.24 43.008zM473.088 574.123l186.368-186.368q12.288 38.912 1.024 78.848t-39.936 68.608-68.608 39.936-78.848-1.024zM716.8 426.667q0-40.96-16.384-79.872l208.896-206.848q12.288 26.624 12.288 55.296v411.648q0 51.2-36.864 89.088t-90.112 37.888h-88.064l-28.672 59.392q-10.24 20.48-28.672 31.744t-40.96 11.264h-192.512q-22.528 0-40.96-11.264t-26.624-31.744l-30.72-59.392h-4.096l118.784-118.784q47.104 20.48 98.304 15.36t94.208-33.792 67.584-73.728 24.576-96.256z" />
<glyph unicode="&#xe93a;" glyph-name="ic_fluent_oval_48_regular" data-tags="ic_fluent_oval_48_regular" d="M86.016 426.667q0 86.016 43.008 159.744t115.712 116.736 160.768 43.008h212.992q88.064 0 160.768-43.008t115.712-116.736 43.008-159.744-43.008-159.744-115.712-116.736-160.768-43.008h-212.992q-88.064 0-160.768 43.008t-115.712 116.736-43.008 159.744zM405.504 692.907q-71.68 0-133.12-35.84t-97.28-97.28-35.84-133.12 35.84-133.12 97.28-97.28 133.12-35.84h212.992q71.68 0 133.12 35.84t97.28 97.28 35.84 133.12-35.84 133.12-97.28 97.28-133.12 35.84h-212.992z" />
<glyph unicode="&#xe93b;" glyph-name="ic_fluent_print_28_filled" data-tags="ic_fluent_print_28_filled" d="M256 727.723v-45.056h-36.864q-59.392 0-102.4-43.008t-43.008-102.4v-256q0-47.104 31.744-78.848t76.8-31.744h73.728v-36.864q0-45.056 31.744-76.8t78.848-31.744h290.816q47.104 0 78.848 31.744t31.744 76.8v36.864h73.728q45.056 0 76.8 31.744t31.744 78.848v256q0 59.392-43.008 102.4t-102.4 43.008h-36.864v45.056q0 43.008-29.696 71.68t-70.656 28.672h-311.296q-40.96 0-70.656-29.696t-29.696-70.656zM712.704 727.723v-45.056h-401.408v45.056q0 18.432 13.312 31.744t31.744 13.312l311.296 2.048q18.432 0 31.744-13.312t13.312-33.792zM366.592 371.371h290.816q24.576 0 39.936-15.36t15.36-39.936v-182.272q0-22.528-15.36-38.912t-39.936-16.384h-290.816q-24.576 0-39.936 16.384t-15.36 38.912v182.272q0 24.576 15.36 39.936t39.936 15.36z" />
<glyph unicode="&#xe93c;" glyph-name="ic_fluent_trophy_32_filled" data-tags="ic_fluent_trophy_32_filled" d="M352.256 875.179q-40.96 0-68.608-28.672t-27.648-67.584h-47.104q-34.816 0-58.368-23.552t-23.552-56.32v-129.024q2.048-57.344 40.96-98.304t96.256-45.056q20.48-75.776 78.848-128t136.192-62.464v-65.536h-110.592q-47.104 0-79.872-32.768t-32.768-79.872v-30.72q0-20.48 14.336-34.816t32.768-14.336h417.792q18.432 0 32.768 14.336t14.336 34.816v30.72q0 47.104-32.768 79.872t-79.872 32.768h-110.592v65.536q77.824 10.24 136.192 62.464t78.848 128q57.344 4.096 96.256 45.056t38.912 98.304v129.024q2.048 32.768-21.504 56.32t-58.368 23.552h-47.104q0 38.912-27.648 67.584t-68.608 28.672h-319.488zM768 492.203v223.232h47.104q8.192 0 12.288-5.12t4.096-11.264v-129.024q0-28.672-17.408-50.176t-46.080-27.648zM256 715.435v-223.232q-28.672 6.144-46.080 27.648t-17.408 50.176v129.024q0 6.144 4.096 11.264t12.288 5.12h47.104z" />
<glyph unicode="&#xe93d;" glyph-name="ic_fluent_trophy_off_16_filled" data-tags="ic_fluent_trophy_off_16_filled" d="M630.784 262.827l274.432-274.432q10.24-10.24 23.552-10.24t22.528 9.216 9.216 22.528-10.24 23.552l-831.488 831.488q-10.24 10.24-23.552 10.24t-22.528-9.216-9.216-22.528 10.24-23.552l92.16-92.16q-38.912-28.672-38.912-77.824v-63.488q0-59.392 38.912-104.448t98.304-53.248q18.432-77.824 77.824-130.048t137.216-62.464v-65.536h-96.256q-51.2 0-89.088-37.888t-37.888-89.088v-32.768q0-14.336 9.216-23.552t23.552-9.216h446.464q14.336 0 23.552 9.216t9.216 23.552v32.768q0 51.2-37.888 89.088t-91.136 37.888h-94.208v65.536q45.056 6.144 86.016 26.624zM212.992 680.619l43.008-43.008v-141.312q-28.672 10.24-46.080 34.816t-17.408 55.296v63.488q0 10.24 5.12 18.432t15.36 12.288zM759.808 428.715q-10.24-43.008-34.816-79.872l-454.656 456.704q16.384 30.72 47.104 50.176t65.536 19.456h258.048q51.2 0 89.088-37.888t37.888-91.136h32.768q38.912 0 66.56-27.648t27.648-68.608v-63.488q2.048-59.392-36.864-104.448t-98.304-53.248zM768 682.667v-186.368q28.672 10.24 46.080 34.816t17.408 55.296v63.488q0 14.336-9.216 23.552t-21.504 9.216h-32.768z" />
<glyph unicode="&#xe93e;" glyph-name="ic_fluent_gift_card_money_24_regular" data-tags="ic_fluent_gift_card_money_24_regular" d="M86.016 725.675q0 53.248 36.864 90.112t90.112 36.864h598.016q53.248 0 90.112-36.864t36.864-90.112v-387.072q-10.24 2.048-20.48 2.048h-43.008v192.512h-423.936l73.728-73.728q14.336-12.288 9.216-30.72t-23.552-23.552-30.72 9.216l-73.728 73.728v-210.944h73.728q-10.24-20.48-10.24-43.008v-20.48h-256q-53.248 0-90.112 36.864t-36.864 90.112v385.024zM212.992 789.163q-26.624 0-45.056-18.432t-18.432-45.056v-129.024h51.2q-12.288 30.72-6.144 63.488t28.672 55.296 55.296 28.672 63.488-6.144v51.2h-129.024zM405.504 789.163v-51.2q30.72 12.288 62.464 6.144t55.296-28.672 29.696-55.296-8.192-63.488h329.728v129.024q0 26.624-18.432 45.056t-45.056 18.432h-405.504zM342.016 277.163v210.944l-73.728-73.728q-10.24-8.192-22.528-8.192t-21.504 9.216-10.24 22.528 9.216 21.504l73.728 73.728h-147.456v-192.512q0-26.624 18.432-45.056t45.056-18.432h129.024zM448.512 596.651q12.288 0 23.552 7.168t15.36 19.456 2.048 24.576-11.264 21.504-21.504 12.288-24.576-2.048-19.456-16.384-7.168-23.552v-43.008h43.008zM342.016 639.659q0 18.432-13.312 30.72t-30.72 12.288-29.696-12.288-12.288-29.696 12.288-30.72 30.72-13.312h43.008v43.008zM512 234.155q0 26.624 18.432 46.080t45.056 17.408h342.016q26.624 0 45.056-18.432t18.432-45.056v-169.984q0-26.624-18.432-45.056t-45.056-18.432h-342.016q-26.624 0-45.056 18.432t-18.432 45.056v169.984zM937.984 213.675q-16.384 0-28.672 12.288t-12.288 30.72h-43.008q0-36.864 24.576-61.44t59.392-24.576v43.008zM937.984 127.659q-34.816 0-59.392-24.576t-24.576-59.392h43.008q0 16.384 12.288 28.672t28.672 12.288v43.008zM598.016 256.683q0-18.432-13.312-30.72t-29.696-12.288v-43.008q34.816 0 60.416 24.576t25.6 61.44h-43.008zM641.024 43.691q0 34.816-25.6 59.392t-60.416 24.576v-43.008q16.384 0 29.696-12.288t13.312-30.72h43.008v2.048zM821.248 150.187q0 30.72-21.504 52.224t-53.248 21.504-53.248-21.504-21.504-53.248 21.504-53.248 53.248-21.504 53.248 21.504 21.504 54.272z" />
<glyph unicode="&#xe93f;" glyph-name="ic_fluent_gift_card_multiple_24_regular" data-tags="ic_fluent_gift_card_multiple_24_regular" d="M212.992 768.683q-53.248 0-90.112-37.888t-36.864-91.136v-319.488q0-53.248 36.864-91.136t90.112-37.888h491.52q53.248 0 90.112 37.888t36.864 91.136v319.488q0 53.248-36.864 91.136t-90.112 37.888h-491.52zM149.504 639.659q0 26.624 18.432 45.056t45.056 18.432h129.024v-51.2q-30.72 14.336-63.488 8.192t-55.296-29.696-28.672-56.32 6.144-61.44h-51.2v126.976zM405.504 651.947v51.2h299.008q26.624 0 45.056-18.432t18.432-45.056v-126.976h-221.184q12.288 28.672 6.144 61.44t-29.696 56.32-55.296 29.696-62.464-8.192zM450.56 447.147h317.44v-126.976q0-26.624-18.432-45.056t-45.056-18.432h-299.008v145.408l73.728-71.68q12.288-14.336 30.72-10.24t23.552 22.528-9.216 32.768zM342.016 402.091v-145.408h-129.024q-26.624 0-45.056 18.432t-18.432 45.056v126.976h147.456l-73.728-71.68q-14.336-14.336-9.216-32.768t23.552-22.528 30.72 10.24zM491.52 555.691q0-18.432-13.312-30.72t-29.696-12.288h-43.008v43.008q0 16.384 12.288 28.672t29.696 12.288 30.72-12.288 13.312-28.672zM299.008 596.651q16.384 0 29.696-12.288t13.312-28.672v-43.008h-43.008q-18.432 0-30.72 12.288t-12.288 29.696 12.288 29.696 30.72 12.288zM319.488 84.651q-34.816 0-64.512 17.408t-46.080 48.128h495.616q69.632 0 119.808 49.152t50.176 120.832v323.584q30.72-16.384 47.104-46.080t16.384-64.512v-212.992q0-63.488-30.72-117.76t-84.992-86.016-117.76-31.744h-385.024z" />
<glyph unicode="&#xe940;" glyph-name="ic_fluent_puzzle_piece_shield_20_regular" data-tags="ic_fluent_puzzle_piece_shield_20_regular" d="M256 195.243v92.16l28.672-10.24q10.24-4.096 22.528-4.096v-77.824q0-10.24 7.168-17.408t17.408-7.168h153.6l2.048-38.912q0-26.624 18.432-45.056t45.056-18.432 45.056 18.432 18.432 45.056v38.912h180.224q10.24 0 17.408 7.168t7.168 19.456v114.688h-47.104q-45.056 4.096-75.776 36.864t-30.72 77.824v10.24q4.096 43.008 36.864 73.728t77.824 30.72h38.912v114.688q0 10.24-6.144 17.408t-14.336 9.216h-157.696v38.912q0 16.384-9.216 30.72t-23.552 23.552-30.72 9.216-32.768-8.192q-20.48 24.576-51.2 24.576 30.72 30.72 73.728 34.816h8.192q43.008 0 75.776-28.672t38.912-71.68v-2.048h104.448q28.672 0 50.176-20.48t25.6-49.152v-174.080h-90.112q-24.576 0-43.008-16.384t-20.48-40.96v-6.144q0-24.576 16.384-43.008t40.96-20.48h96.256v-165.888q0-32.768-22.528-55.296t-55.296-22.528h-126.976v-2.048q-6.144-40.96-35.84-68.608t-70.656-31.744h-8.192q-43.008 0-75.776 28.672t-38.912 71.68v2.048h-102.4q-30.72 0-52.224 19.456t-25.6 50.176v6.144zM409.6 766.635q38.912-16.384 81.92-16.384 8.192 0 13.312-4.096t7.168-12.288v-133.12q0-206.848-198.656-274.432-6.144-4.096-12.288 0-55.296 18.432-96.256 49.152-28.672 22.528-51.2 51.2-47.104 65.536-51.2 161.792v141.312q0 8.192 6.144 14.336t14.336 6.144q94.208 0 169.984 79.872 6.144 6.144 14.336 6.144t14.336-6.144q40.96-43.008 88.064-63.488z" />
<glyph unicode="&#xe941;" glyph-name="ic_fluent_puzzle_piece_shield_20_filled" data-tags="ic_fluent_puzzle_piece_shield_20_filled" d="M256 168.619v118.784l28.672-10.24q22.528-8.192 45.056 0 114.688 38.912 174.080 121.856t59.392 201.728v131.072l-2.048 12.288q-4.096 24.576-23.552 40.96t-46.080 16.384h-4.096q20.48 24.576 51.2 31.744t60.416-4.096 48.128-36.864 18.432-58.368v-2.048h153.6q20.48 0 35.84-15.36t15.36-35.84v-151.552h-51.2q-40.96 0-69.632-27.648t-32.768-66.56v-8.192q0-40.96 27.648-69.632t66.56-32.768h59.392v-155.648q0-22.528-15.36-36.864t-35.84-14.336h-153.6v-6.144q-2.048-40.96-32.768-68.608t-71.68-26.624-70.656 30.72-29.696 70.656h-153.6q-20.48 0-35.84 14.336t-15.36 36.864zM409.6 766.635q38.912-16.384 81.92-16.384 8.192 0 13.312-4.096t7.168-12.288v-133.12q0-206.848-198.656-274.432-6.144-4.096-12.288 0-55.296 18.432-96.256 49.152-28.672 22.528-51.2 51.2-47.104 65.536-51.2 161.792v141.312q0 8.192 6.144 14.336t14.336 6.144q94.208 0 169.984 79.872 6.144 6.144 14.336 6.144t14.336-6.144q40.96-43.008 88.064-63.488z" />
<glyph unicode="&#xe942;" glyph-name="ic_fluent_ribbon_off_12_filled" data-tags="ic_fluent_ribbon_off_12_filled" d="M229.376 649.899q-28.672-81.92-9.216-163.84t79.872-142.336 143.36-79.872 162.816 7.168l63.488-61.44q-73.728-38.912-157.696-38.912-92.16 0-169.984 45.056v-172.032q0-26.624 22.528-38.912t43.008 2.048l104.448 69.632 104.448-69.632q20.48-14.336 43.008-2.048t22.528 38.912v151.552l184.32-182.272q12.288-12.288 29.696-12.288t29.696 12.288 12.288 29.696-12.288 29.696l-768 768q-16.384 18.432-40.96 12.288t-30.72-30.72 12.288-40.96zM811.008 555.691q0-102.4-63.488-184.32l-417.792 419.84q67.584 51.2 152.576 60.416t161.792-28.672 121.856-110.592 45.056-156.672z" />
<glyph unicode="&#xe943;" glyph-name="ic_fluent_square_hint_sparkles_28_filled" data-tags="ic_fluent_square_hint_sparkles_28_filled" d="M663.552 688.811q20.48-18.432 28.672-45.056l18.432-55.296q6.144-16.384 21.504-16.384t19.456 16.384l18.432 55.296q8.192 26.624 27.648 45.056t46.080 28.672l55.296 16.384q14.336 6.144 14.336 21.504t-14.336 21.504l-57.344 18.432q-24.576 8.192-44.032 27.648t-27.648 44.032l-18.432 57.344q-6.144 14.336-21.504 14.336t-21.504-14.336l-18.432-57.344q-8.192-26.624-26.624-45.056t-45.056-26.624l-55.296-18.432q-14.336-6.144-14.336-21.504t14.336-19.456l55.296-18.432q26.624-10.24 45.056-28.672zM980.992 559.787l32.768-10.24h2.048q8.192-4.096 8.192-13.312t-8.192-13.312l-34.816-10.24q-32.768-10.24-43.008-43.008l-10.24-34.816q-4.096-8.192-13.312-8.192t-13.312 8.192l-10.24 34.816q-10.24 32.768-43.008 43.008l-34.816 12.288q-8.192 2.048-8.192 11.264t8.192 13.312l34.816 10.24q30.72 12.288 43.008 43.008l10.24 34.816q4.096 8.192 13.312 8.192t11.264-8.192l12.288-34.816q10.24-32.768 43.008-43.008zM550.912 811.691l36.864 10.24q-10.24 6.144-20.48 6.144h-110.592q-14.336 0-25.6-10.24t-11.264-25.6 11.264-25.6 25.6-10.24h55.296q0 18.432 11.264 33.792t27.648 19.456v2.048zM419.84 60.075q0 16.384 11.264 26.624t25.6 10.24h110.592q20.48 0 30.72-18.432t0-35.84-30.72-17.408h-110.592q-14.336 0-25.6 10.24t-11.264 24.576zM110.592 371.371q0-20.48 17.408-30.72t35.84 0 18.432 30.72v110.592q0 20.48-18.432 30.72t-35.84 0-17.408-30.72v-110.592zM256 828.075q14.336 0 25.6-10.24t11.264-25.6-11.264-25.6-25.6-10.24h-8.192q-26.624 0-46.080-19.456t-19.456-46.080v-8.192q0-14.336-10.24-25.6t-25.6-11.264-25.6 11.264-10.24 25.6v8.192q0 57.344 39.936 97.28t97.28 39.936h8.192zM292.864 60.075q0-14.336-11.264-24.576t-25.6-10.24h-8.192q-57.344 0-97.28 39.936t-39.936 97.28v8.192q0 20.48 17.408 31.744t35.84 0 18.432-31.744v-8.192q0-26.624 19.456-46.080t46.080-19.456h8.192q14.336 0 25.6-10.24t11.264-26.624zM731.136 60.075q0-14.336 11.264-24.576t25.6-10.24h8.192q57.344 0 97.28 39.936t39.936 97.28v8.192q0 14.336-10.24 25.6t-25.6 11.264-25.6-11.264-10.24-25.6v-8.192q0-26.624-19.456-46.080t-46.080-19.456h-8.192q-14.336 0-25.6-10.24t-11.264-26.624z" />
<glyph unicode="&#xe944;" glyph-name="ic_fluent_pin_32_filled" data-tags="ic_fluent_pin_32_filled" d="M503.808 801.451q18.432 38.912 55.296 57.344t77.824 12.288 71.68-36.864l210.944-210.944q30.72-30.72 36.864-71.68t-12.288-77.824-57.344-55.296l-202.752-102.4q-18.432-8.192-24.576-26.624l-53.248-159.744q-10.24-34.816-45.056-43.008t-59.392 18.432l-133.12 133.12-194.56-194.56h-45.056v45.056l194.56 194.56-133.12 133.12q-26.624 24.576-18.432 59.392t43.008 45.056l159.744 53.248q18.432 6.144 26.624 24.576z" />
<glyph unicode="&#xe945;" glyph-name="ic_fluent_add_square_multiple_20_filled" data-tags="ic_fluent_add_square_multiple_20_filled" d="M819.2 668.331q24.576-12.288 37.888-36.864t13.312-51.2v-307.2q0-83.968-60.416-144.384t-144.384-60.416h-307.2q-26.624 0-51.2 13.312t-36.864 37.888h395.264q63.488 0 108.544 45.056t45.056 108.544v395.264zM768 682.667q0 43.008-29.696 72.704t-72.704 29.696h-409.6q-43.008 0-72.704-29.696t-29.696-72.704v-409.6q0-43.008 29.696-72.704t72.704-29.696h409.6q43.008 0 72.704 29.696t29.696 72.704v409.6zM614.4 477.867q0-10.24-7.168-18.432t-17.408-8.192h-102.4v-100.352q-2.048-12.288-9.216-19.456t-17.408-7.168-18.432 7.168-8.192 17.408v104.448h-100.352q-12.288 0-19.456 7.168t-7.168 17.408 7.168 17.408 17.408 9.216h104.448v102.4q0 10.24 7.168 17.408t17.408 7.168 18.432-7.168 8.192-17.408v-102.4h102.4q10.24 0 17.408-8.192t7.168-18.432z" />
<glyph unicode="&#xe946;" glyph-name="ic_fluent_prohibited_multiple_16_filled" data-tags="ic_fluent_prohibited_multiple_16_filled" d="M448.512 170.667q86.016 0 159.744 43.008t116.736 116.736 43.008 160.768-43.008 159.744-116.736 116.736-160.768 44.032-159.744-44.032-116.736-116.736-43.008-159.744 44.032-160.768 115.712-116.736 160.768-43.008zM448.512 266.923q-65.536 0-120.832 34.816l309.248 309.248q32.768-51.2 34.816-112.64t-27.648-115.712-81.92-84.992-113.664-30.72zM569.344 678.571l-309.248-309.248q-43.008 67.584-34.816 145.408t64.512 134.144 134.144 64.512 145.408-34.816zM831.488 490.155q0-86.016-36.864-163.84t-102.4-132.096-149.504-75.776-167.936-5.12q63.488-51.2 141.312-65.536t153.6 8.192 133.12 79.872 79.872 133.12 8.192 153.6-65.536 141.312q6.144-36.864 6.144-73.728z" />
<glyph unicode="&#xe947;" glyph-name="ic_fluent_shield_16_filled" data-tags="ic_fluent_shield_16_filled" d="M489.472 801.451q10.24 10.24 23.552 10.24t21.504-10.24q118.784-118.784 266.24-118.784 12.288 0 21.504-9.216t9.216-23.552v-190.464q0-155.648-77.824-260.096t-231.424-155.648q-10.24-2.048-20.48 0-153.6 51.2-231.424 155.648t-77.824 260.096v190.464q0 14.336 9.216 23.552t21.504 9.216q147.456 0 266.24 118.784z" />
<glyph unicode="&#xe948;" glyph-name="ic_fluent_add_square_multiple_20_regular" data-tags="ic_fluent_add_square_multiple_20_regular" d="M819.2 668.331v-395.264q0-63.488-45.056-108.544t-108.544-45.056h-395.264q12.288-24.576 36.864-37.888t51.2-13.312h307.2q83.968 0 144.384 60.416t60.416 144.384v307.2q0 26.624-13.312 51.2t-37.888 36.864zM589.824 453.291q10.24 0 17.408 7.168t7.168 17.408-7.168 18.432-17.408 8.192h-102.4v102.4q0 10.24-8.192 17.408t-18.432 7.168-17.408-7.168-9.216-17.408v-102.4h-100.352q-12.288 0-19.456-8.192t-7.168-18.432 7.168-18.432 17.408-8.192h104.448v-100.352q0-12.288 7.168-19.456t17.408-7.168 18.432 7.168 8.192 17.408v104.448h102.4zM665.6 785.067q43.008 0 72.704-29.696t29.696-72.704v-409.6q0-43.008-29.696-72.704t-72.704-29.696h-409.6q-43.008 0-72.704 29.696t-29.696 72.704v409.6q0 43.008 29.696 72.704t72.704 29.696h409.6zM716.8 682.667q0 20.48-15.36 35.84t-35.84 15.36h-409.6q-20.48 0-35.84-15.36t-15.36-35.84v-409.6q0-20.48 15.36-35.84t35.84-15.36h409.6q20.48 0 35.84 15.36t15.36 35.84v409.6z" />
<glyph unicode="&#xe949;" glyph-name="ic_fluent_book_open_microphone_32_filled" data-tags="ic_fluent_book_open_microphone_32_filled" d="M135.168 811.691q-28.672 0-50.176-21.504t-21.504-52.224v-622.592q0-30.72 21.504-52.224t50.176-21.504h256q36.864 2.048 68.608 17.408t52.224 41.984q32.768-40.96 83.968-55.296-51.2 69.632-51.2 157.696 0 26.624 14.336 49.152v405.504q0 30.72 21.504 51.2t52.224 20.48h247.808v-260.096q36.864-22.528 58.368-59.392t21.504-79.872v407.552q0 30.72-21.504 52.224t-50.176 21.504h-256q-36.864 0-68.608-16.384t-52.224-43.008q-22.528 26.624-53.248 43.008t-67.584 14.336h-256v2.048zM143.36 123.563v606.208h247.808q30.72 0 52.224-20.48t21.504-51.2v-462.848q0-30.72-21.504-51.2t-52.224-20.48h-247.808zM911.36 47.787q-34.816-26.624-79.872-34.816v-43.008q0-10.24-7.168-16.384t-16.384-6.144-16.384 6.144-7.168 16.384v40.96q-49.152 4.096-90.112 30.72-47.104 30.72-69.632 81.92-16.384 36.864-16.384 79.872 0 8.192 7.168 15.36t16.384 7.168 16.384-7.168 7.168-15.36q0-57.344 37.888-98.304t93.184-45.056h2.048q18.432-2.048 34.816 0h2.048q51.2 10.24 84.992 50.176t33.792 93.184q0 8.192 7.168 15.36t17.408 7.168 16.384-7.168 6.144-15.36q0-63.488-34.816-112.64-18.432-26.624-45.056-43.008zM800.768 107.179q-40.96 0-68.608 27.648t-27.648 68.608v126.976q0 40.96 27.648 68.608t67.584 27.648 67.584-27.648 27.648-68.608v-126.976q2.048-30.72-14.336-53.248-12.288-16.384-26.624-26.624-24.576-16.384-53.248-16.384z" />
<glyph unicode="&#xe94a;" glyph-name="ic_fluent_book_open_microphone_24_regular" data-tags="ic_fluent_book_open_microphone_24_regular" d="M512 121.515q-34.816-36.864-86.016-36.864h-266.24q-30.72 0-52.224 22.528t-21.504 53.248v532.48q0 30.72 21.504 53.248t52.224 22.528h266.24q51.2 0 86.016-36.864 34.816 36.864 86.016 36.864h266.24q30.72 0 52.224-22.528t21.504-53.248v-372.736q0 49.152-28.672 88.064-14.336 20.48-34.816 34.816v249.856q0 4.096-3.072 7.168t-7.168 3.072h-266.24q-22.528 0-37.888-15.36t-15.36-37.888v-446.464q0-20.48 12.288-34.816 2.048-16.384 6.144-30.72 8.192-28.672 22.528-51.2-43.008 4.096-73.728 34.816zM149.504 692.907v-532.48q0-4.096 3.072-7.168t7.168-3.072h266.24q22.528 0 37.888 15.36t15.36 37.888v446.464q0 22.528-15.36 37.888t-37.888 15.36h-266.24q-4.096 0-7.168-3.072t-3.072-7.168zM874.496 86.699q30.72 16.384 47.104 44.032t16.384 60.416q0 10.24 6.144 16.384t15.36 6.144 15.36-6.144 6.144-16.384q0-63.488-49.152-111.616t-120.832-56.32v-45.056q0-8.192-6.144-14.336t-15.36-6.144-15.36 6.144-6.144 14.336v45.056q-77.824 8.192-126.976 61.44-20.48 22.528-31.744 50.176t-11.264 56.32q0 10.24 6.144 16.384t14.336 6.144 14.336-6.144 6.144-16.384q0-45.056 30.72-77.824 14.336-16.384 34.816-28.672 38.912-20.48 86.016-20.48t83.968 22.528zM788.48 107.179q-24.576 0-47.104 11.264t-36.864 31.744q-22.528 26.624-22.528 63.488v106.496q0 40.96 30.72 73.728t75.776 32.768q55.296 0 86.016-43.008 20.48-28.672 22.528-63.488v-106.496q0-43.008-30.72-74.752t-77.824-31.744z" />
<glyph unicode="&#xe94b;" glyph-name="ic_fluent_shield_16_regular" data-tags="ic_fluent_shield_16_regular" d="M489.472 801.451q10.24 10.24 23.552 10.24t21.504-10.24q118.784-118.784 266.24-118.784 12.288 0 21.504-9.216t9.216-23.552v-190.464q0-155.648-77.824-260.096t-231.424-155.648q-10.24-2.048-20.48 0-153.6 51.2-231.424 155.648t-77.824 260.096v190.464q0 14.336 9.216 23.552t21.504 9.216q147.456 0 266.24 118.784zM512 733.867q-116.736-104.448-256-114.688v-159.744q0-133.12 64.512-219.136t191.488-131.072q126.976 43.008 191.488 130.048t64.512 220.16v159.744q-141.312 12.288-256 114.688z" />
<glyph unicode="&#xe94c;" glyph-name="ic_fluent_mail_dismiss_16_regular" data-tags="ic_fluent_mail_dismiss_16_regular" d="M960.512 586.411q0-77.824-38.912-144.384t-105.472-104.448-144.384-37.888-144.384 37.888-105.472 104.448-37.888 144.384 38.912 144.384 104.448 105.472 144.384 38.912 144.384-38.912 105.472-105.472 38.912-144.384zM790.528 660.139q10.24 10.24 10.24 22.528t-10.24 22.528-22.528 10.24-22.528-10.24l-73.728-73.728-73.728 73.728q-8.192 10.24-21.504 10.24t-22.528-10.24-9.216-22.528 8.192-22.528l73.728-73.728-73.728-73.728q-12.288-12.288-8.192-30.72t22.528-22.528 30.72 8.192l73.728 73.728 73.728-73.728q10.24-8.192 22.528-8.192t22.528 9.216 10.24 22.528-10.24 21.504l-73.728 73.728zM768 107.179v141.312q32.768 8.192 63.488 24.576v-165.888q0-53.248-36.864-91.136t-90.112-37.888h-512q-53.248 0-91.136 37.888t-37.888 91.136v382.976q0 53.248 37.888 91.136t91.136 37.888h129.024q-2.048-32.768 0-63.488h-129.024q-26.624 0-45.056-19.456t-18.432-46.080v-47.104l319.488-172.032 34.816 18.432q32.768-20.48 69.632-34.816l-90.112-49.152q-14.336-8.192-30.72 0l-303.104 165.888v-264.192q-2.048-26.624 17.408-45.056t46.080-18.432h512q26.624 0 45.056 18.432t18.432 45.056z" />
<glyph unicode="&#xe94d;" glyph-name="ic_fluent_mic_sparkle_24_regular" data-tags="ic_fluent_mic_sparkle_24_regular" d="M591.872 291.499q20.48-18.432 28.672-47.104l18.432-57.344q6.144-16.384 22.528-16.384t22.528 16.384l18.432 57.344q8.192 28.672 28.672 48.128t47.104 29.696l59.392 18.432q16.384 6.144 16.384 22.528t-16.384 20.48l-59.392 20.48q-26.624 8.192-47.104 28.672t-30.72 47.104l-18.432 59.392q-6.144 16.384-22.528 16.384t-20.48-16.384l-20.48-59.392q-8.192-26.624-28.672-47.104t-47.104-28.672l-57.344-18.432q-16.384-6.144-16.384-22.528t16.384-22.528l57.344-18.432q28.672-10.24 49.152-30.72zM681.984 682.667v-90.112q-16.384 6.144-32.768 3.072t-30.72-13.312v100.352q0 45.056-30.72 75.776t-75.776 30.72-75.776-30.72-30.72-75.776v-256q0-34.816 20.48-63.488 0-20.48 12.288-37.888t32.768-25.6l59.392-18.432q16.384-6.144 30.72-18.432-38.912-12.288-78.848-5.12t-72.704 31.744-50.176 60.416-17.408 76.8v256q0 45.056 22.528 84.992t62.464 62.464 84.992 22.528 84.992-22.528 62.464-62.464 22.528-84.992zM522.24 191.147q34.816 0 67.584 10.24l10.24-28.672q4.096-16.384 18.432-28.672-36.864-12.288-73.728-14.336v-98.304q0-12.288-9.216-21.504t-21.504-10.24-22.528 7.168-10.24 20.48l-2.048 102.4q-71.68 4.096-132.096 41.984t-96.256 100.352-37.888 134.144v30.72q0 12.288 9.216 21.504t21.504 10.24 21.504-7.168 11.264-20.48v-24.576q0-90.112 62.464-155.648t152.576-67.584zM940.032 129.707l32.768-10.24q6.144-2.048 8.192-8.192t-1.024-11.264-7.168-5.12l-32.768-10.24q-32.768-12.288-43.008-43.008l-10.24-32.768q-2.048-8.192-11.264-8.192t-13.312 8.192l-10.24 32.768q-10.24 30.72-43.008 43.008l-32.768 10.24q-6.144 2.048-8.192 8.192t1.024 10.24 7.168 6.144l32.768 10.24q32.768 10.24 43.008 43.008l10.24 32.768q2.048 8.192 11.264 8.192t13.312-8.192l10.24-32.768q10.24-32.768 43.008-43.008z" />
<glyph unicode="&#xe94e;" glyph-name="ic_fluent_video_switch_20_regular" data-tags="ic_fluent_video_switch_20_regular" d="M204.8 709.291q0 51.2 37.888 89.088t89.088 37.888h258.048q51.2 0 89.088-37.888t37.888-91.136v-30.72l96.256 53.248q20.48 10.24 38.912-1.024t18.432-31.744v-231.424q0-22.528-18.432-33.792t-38.912-1.024l-96.256 53.248v-30.72q0-53.248-37.888-91.136t-91.136-37.888h-253.952q-53.248 0-91.136 37.888t-37.888 91.136v256zM716.8 541.355l102.4-55.296v188.416l-102.4-55.296v-77.824zM333.824 785.067q-32.768 0-55.296-22.528t-22.528-55.296v-253.952q0-32.768 22.528-55.296t55.296-22.528h256q30.72 0 53.248 22.528t22.528 55.296v256q0 30.72-22.528 53.248t-55.296 22.528h-253.952zM188.416 330.411q-22.528-8.192-43.008-20.48-43.008-26.624-43.008-62.464t43.008-62.464q30.72-20.48 88.064-34.816 116.736-30.72 278.528-30.72h14.336l-57.344-59.392q-8.192-6.144-8.192-17.408t7.168-18.432 18.432-7.168 17.408 8.192l102.4 102.4q8.192 6.144 8.192 17.408t-8.192 17.408l-102.4 102.4q-6.144 8.192-17.408 8.192t-18.432-7.168-7.168-18.432 8.192-17.408l57.344-59.392h-14.336q-155.648 0-264.192 28.672-51.2 14.336-75.776 30.72-18.432 10.24-18.432 17.408t18.432 17.408q22.528 14.336 61.44 26.624-26.624 14.336-45.056 38.912zM712.704 307.883q22.528 20.48 36.864 47.104 20.48-6.144 40.96-10.24 57.344-14.336 88.064-34.816 43.008-26.624 43.008-62.464t-43.008-62.464q-30.72-20.48-88.064-34.816-20.48-6.144-43.008-10.24-12.288-2.048-21.504 5.12t-9.216 18.432 6.144 18.432 14.336 9.216l38.912 8.192q51.2 14.336 75.776 30.72 18.432 10.24 18.432 17.408t-18.432 17.408q-24.576 16.384-75.776 30.72-28.672 8.192-63.488 12.288z" />
<glyph unicode="&#xe94f;" glyph-name="ic_fluent_ribbon_20_filled" data-tags="ic_fluent_ribbon_20_filled" d="M819.2 529.067q0-83.968-40.96-154.624t-111.616-111.616-154.624-40.96-154.624 40.96-111.616 111.616-40.96 154.624 40.96 154.624 111.616 111.616 154.624 40.96 154.624-40.96 111.616-111.616 40.96-154.624zM512 170.667q112.64 0 204.8 63.488v-190.464q0-16.384-14.336-23.552t-26.624 1.024l-163.84 98.304-163.84-98.304q-12.288-8.192-26.624-1.024t-14.336 23.552v190.464q92.16-63.488 204.8-63.488z" />
<glyph unicode="&#xe950;" glyph-name="ic_fluent_tap_double_20_regular" data-tags="ic_fluent_tap_double_20_regular" d="M487.424 785.067q-71.68 0-134.144-33.792t-102.4-93.184-45.056-130.048 21.504-136.192q-22.528-14.336-40.96-32.768-47.104 98.304-27.648 204.8t98.304 180.224 185.344 88.064 201.728-36.864 142.336-148.48 26.624-203.776q-20.48 18.432-47.104 28.672 6.144 61.44-12.288 117.76t-58.368 101.376-94.208 69.632-113.664 24.576zM716.8 486.059q4.096 71.68-31.744 134.144t-101.376 92.16-136.192 17.408-121.856-62.464-65.536-120.832 16.384-136.192q24.576 6.144 53.248 6.144-28.672 51.2-21.504 107.52t45.056 98.304 93.184 55.296 107.52-8.192 82.944-69.632 28.672-105.472zM487.424 631.467q-32.768 0-55.296-22.528t-22.528-55.296v-217.088q-51.2 18.432-93.184 13.312t-68.608-25.6q-30.72-26.624-43.008-69.632-2.048-12.288 4.096-21.504t18.432-11.264q90.112-10.24 153.6-55.296 49.152-34.816 79.872-83.968 20.48-32.768 54.272-51.2t70.656-12.288l77.824 14.336q32.768 6.144 59.392 27.648t38.912 54.272l49.152 135.168q10.24 28.672 8.192 56.32t-16.384 52.224-37.888 40.96-52.224 22.528l-149.504 26.624v106.496q0 30.72-22.528 53.248t-55.296 22.528h2.048zM460.8 555.691q0 10.24 7.168 17.408t18.432 7.168 18.432-7.168 7.168-17.408v-129.024q0-10.24 6.144-17.408t14.336-7.168l172.032-30.72q34.816-6.144 53.248-36.864t6.144-65.536l-51.2-137.216q-6.144-18.432-22.528-31.744t-36.864-17.408l-75.776-12.288q-20.48-4.096-39.936 7.168t-33.792 31.744q-32.768 53.248-83.968 92.16-65.536 49.152-153.6 67.584 6.144 8.192 14.336 14.336 14.336 12.288 38.912 16.384 47.104 4.096 104.448-24.576 12.288-6.144 24.576 2.048t12.288 20.48v258.048z" />
<glyph unicode="&#xe951;" glyph-name="ic_fluent_tap_single_20_regular" data-tags="ic_fluent_tap_single_20_regular" d="M307.2 504.491q0 47.104 24.576 89.088t67.584 66.56 91.136 23.552 90.112-26.624 64.512-69.632 20.48-93.184l51.2-8.192q4.096 71.68-31.744 134.144t-101.376 92.16-136.192 17.408-121.856-62.464-65.536-120.832 16.384-136.192q24.576 6.144 53.248 6.144-22.528 40.96-22.528 88.064zM487.424 631.467q-32.768 0-55.296-22.528t-22.528-55.296v-217.088q-51.2 18.432-93.184 13.312t-68.608-25.6q-30.72-26.624-43.008-69.632-2.048-12.288 4.096-21.504t18.432-11.264q90.112-10.24 153.6-55.296 49.152-34.816 79.872-83.968 20.48-32.768 54.272-51.2t70.656-12.288l77.824 14.336q32.768 6.144 59.392 27.648t38.912 54.272l49.152 135.168q10.24 28.672 8.192 56.32t-16.384 52.224-37.888 40.96-52.224 22.528l-149.504 26.624v106.496q0 30.72-22.528 53.248t-55.296 22.528h2.048zM460.8 555.691q0 10.24 7.168 17.408t18.432 7.168 18.432-7.168 7.168-17.408v-129.024q0-10.24 6.144-17.408t14.336-7.168l172.032-30.72q34.816-6.144 53.248-36.864t6.144-65.536l-51.2-137.216q-6.144-18.432-22.528-31.744t-36.864-17.408l-75.776-12.288q-20.48-4.096-39.936 7.168t-33.792 31.744q-32.768 53.248-83.968 92.16-65.536 49.152-153.6 67.584 6.144 8.192 14.336 14.336 14.336 12.288 38.912 16.384 47.104 4.096 104.448-24.576 12.288-6.144 24.576 2.048t12.288 20.48v258.048z" />
<glyph unicode="&#xe952;" glyph-name="ic_fluent_call_exclamation_20_filled" data-tags="ic_fluent_call_exclamation_20_filled" d="M911.36 541.355l8.192 43.008q6.144 30.72-5.12 62.464t-35.84 52.224q-124.928 112.64-366.592 110.592-126.976 0-223.232-28.672t-151.552-81.92q-22.528-22.528-30.72-54.272t0-62.464l14.336-43.008q8.192-28.672 34.816-46.080t57.344-15.36l83.968 8.192q43.008 4.096 61.44 69.632l26.624 88.064q67.584 26.624 126.976 26.624 65.536 0 126.976-26.624l26.624-88.064q8.192-30.72 28.672-48.128t47.104-21.504l83.968-8.192q30.72-2.048 55.296 15.36t30.72 48.128zM743.424 248.491q0-63.488-31.744-116.736t-83.968-83.968-115.712-30.72-115.712 30.72-83.968 83.968-30.72 115.712 31.744 115.712 82.944 83.968 115.712 30.72 115.712-30.72 83.968-83.968 31.744-114.688zM512 375.467q-10.24 0-18.432-7.168t-8.192-17.408v-102.4q0-12.288 8.192-19.456t18.432-7.168 18.432 7.168 8.192 17.408v104.448q0 10.24-8.192 17.408t-18.432 7.168zM512 113.323q12.288 0 22.528 9.216t10.24 22.528-10.24 22.528-22.528 9.216-22.528-9.216-10.24-22.528 10.24-22.528 22.528-9.216z" />
<glyph unicode="&#xe953;" glyph-name="ic_fluent_camera_off_24_filled" data-tags="ic_fluent_camera_off_24_filled" d="M94.208 844.459q10.24 8.192 23.552 8.192t21.504-8.192l790.528-790.528q8.192-8.192 8.192-21.504t-9.216-22.528-22.528-9.216-21.504 8.192l-40.96 40.96q-20.48-8.192-43.008-6.144h-577.536q-57.344 0-97.28 39.936t-39.936 97.28v405.504q0 45.056 24.576 80.896t65.536 50.176l-81.92 81.92q-8.192 8.192-8.192 21.504t8.192 23.552zM589.824 303.787q-38.912-28.672-87.040-25.6t-81.92 36.864-36.864 81.92 25.6 87.040l-45.056 45.056q-47.104-57.344-44.032-132.096t55.296-128 126.976-56.32 132.096 46.080zM700.416 373.419q8.192 45.056-6.144 90.112t-47.104 77.824-76.8 47.104-91.136 6.144l-153.6 153.6 24.576 38.912q12.288 20.48 34.816 32.768t47.104 12.288h161.792q26.624 0 48.128-13.312t35.84-33.792l32.768-59.392h90.112q57.344 0 97.28-40.96t39.936-98.304v-405.504q0-20.48-6.144-38.912z" />
<glyph unicode="&#xe954;" glyph-name="ic_fluent_chat_bubbles_question_20_regular" data-tags="ic_fluent_chat_bubbles_question_20_regular" d="M434.176 686.763q-32.768-6.144-53.248-43.008-6.144-8.192-16.384-11.264t-19.456 2.048-11.264 15.36 2.048 20.48q32.768 57.344 90.112 67.584 49.152 10.24 90.112-18.432 20.48-12.288 32.768-32.768t12.288-43.008q2.048-51.2-55.296-86.016-32.768-18.432-40.96-30.72-4.096-8.192-4.096-22.528 0-12.288-7.168-19.456t-18.432-7.168-18.432 7.168-7.168 17.408q0 30.72 12.288 51.2 14.336 24.576 57.344 49.152 32.768 18.432 31.744 38.912t-23.552 35.84-53.248 9.216zM448.512 350.891q16.384 0 27.648 10.24t10.24 26.624-11.264 27.648-26.624 11.264-27.648-11.264-11.264-27.648 11.264-27.648 27.648-11.264v2.048zM436.224 887.467q-90.112 0-166.912-44.032t-121.856-120.832-45.056-164.864 43.008-165.888l-40.96-106.496q-6.144-12.288-3.072-26.624t12.288-25.6 23.552-15.36 28.672 0l126.976 36.864q92.16-45.056 193.536-28.672t176.128 86.016 97.28 169.984-15.36 195.584-121.856 152.576-186.368 57.344zM153.6 555.691q0 94.208 57.344 168.96t148.48 100.352 179.2-8.192 137.216-114.688 39.936-175.104-73.728-163.84-157.696-86.016-177.152 26.624l-8.192 4.096-147.456-40.96 49.152 131.072-6.144 10.24q-40.96 67.584-40.96 147.456zM587.776 68.267q-73.728 0-139.264 30.72t-114.688 86.016q45.056-12.288 90.112-14.336 73.728-51.2 163.84-51.2 67.584 0 126.976 30.72l8.192 4.096 147.456-40.96-49.152 131.072 6.144 10.24q40.96 67.584 40.96 147.456 0 86.016-49.152 157.696 0 47.104-12.288 90.112 53.248-47.104 82.944-112.64t29.696-135.168q0-88.064-43.008-163.84l40.96-106.496q6.144-12.288 3.072-26.624t-12.288-25.6-23.552-15.36-28.672 0l-126.976 36.864q-67.584-32.768-141.312-32.768z" />
<glyph unicode="&#xe955;" glyph-name="ic_fluent_chat_off_20_filled" data-tags="ic_fluent_chat_off_20_filled" d="M204.8 697.003l-94.208 96.256q-8.192 6.144-8.192 17.408t7.168 18.432 18.432 7.168 17.408-8.192l768-768q8.192-6.144 8.192-17.408t-7.168-18.432-18.432-7.168-17.408 8.192l-96.256 94.208q-55.296-49.152-124.928-75.776t-145.408-26.624q-98.304 0-184.32 45.056l-6.144 2.048-186.368-47.104q-12.288-2.048-21.504 5.12t-11.264 17.408v4.096l47.104 192.512-2.048 6.144q-36.864 69.632-43.008 147.456l-2.048 36.864q0 75.776 26.624 145.408t75.776 124.928zM561.152 340.651l-34.816 34.816h-147.456q-8.192-2.048-14.336-9.216t-6.144-16.384 6.144-16.384 14.336-9.216h163.84q14.336 2.048 18.432 16.384zM423.936 477.867l-49.152 49.152q-8.192-2.048-12.288-9.216t-4.096-16.384 6.144-15.36 14.336-8.192h45.056zM641.024 477.867h-71.68l280.576-280.576q55.296 79.872 67.584 174.080t-17.408 185.344-98.304 159.744-159.744 98.304-185.344 17.408-174.080-67.584l235.52-235.52h126.976q8.192-2.048 14.336-9.216t6.144-16.384-6.144-16.384-14.336-9.216h-4.096z" />
<glyph unicode="&#xe956;" glyph-name="ic_fluent_chat_bubbles_question_20_filled" data-tags="ic_fluent_chat_bubbles_question_20_filled" d="M436.224 887.467q-90.112 0-166.912-44.032t-121.856-120.832-45.056-164.864 43.008-165.888l-40.96-106.496q-6.144-12.288-3.072-26.624t12.288-25.6 23.552-15.36 28.672 0l126.976 36.864q92.16-45.056 193.536-28.672t176.128 86.016 97.28 169.984-15.36 195.584-121.856 152.576-186.368 57.344zM434.176 686.763q-32.768-6.144-53.248-43.008-6.144-8.192-16.384-11.264t-19.456 2.048-11.264 15.36 2.048 20.48q32.768 57.344 90.112 67.584 49.152 10.24 90.112-18.432 20.48-12.288 32.768-32.768t12.288-43.008q2.048-51.2-55.296-86.016-32.768-18.432-40.96-30.72-4.096-8.192-4.096-22.528 0-12.288-7.168-19.456t-18.432-7.168-18.432 7.168-7.168 17.408q0 30.72 12.288 51.2 14.336 24.576 57.344 49.152 32.768 18.432 31.744 38.912t-23.552 35.84-53.248 9.216zM448.512 350.891q-16.384 0-27.648 10.24t-11.264 26.624 11.264 27.648 27.648 11.264 27.648-11.264 10.24-27.648-11.264-27.648-26.624-11.264v2.048zM333.824 185.003q49.152-55.296 114.688-86.016t139.264-30.72 141.312 32.768l126.976-36.864q14.336-4.096 28.672 0t23.552 15.36 12.288 25.6-3.072 26.624l-40.96 106.496q43.008 75.776 43.008 161.792 0 73.728-29.696 139.264t-82.944 110.592q12.288-43.008 12.288-90.112 49.152-71.68 49.152-157.696 0-79.872-40.96-147.456l-6.144-10.24 49.152-131.072-145.408 40.96-10.24-4.096q-59.392-30.72-126.976-30.72-90.112 0-163.84 51.2-45.056 2.048-90.112 14.336z" />
<glyph unicode="&#xe957;" glyph-name="ic_fluent_chat_mail_20_regular" data-tags="ic_fluent_chat_mail_20_regular" d="M307.2 631.467q0 10.24 7.168 17.408t17.408 9.216h155.648q10.24 0 17.408-8.192t7.168-18.432-7.168-18.432-17.408-8.192h-153.6q-12.288 0-19.456 8.192t-7.168 18.432zM333.824 555.691q-12.288-2.048-19.456-9.216t-7.168-17.408 7.168-18.432 17.408-8.192h104.448q10.24 2.048 17.408 9.216t7.168 17.408-7.168 18.432-17.408 8.192h-102.4zM409.6 887.467q-81.92 0-152.576-39.936t-111.616-110.592-43.008-151.552 36.864-152.576l-34.816-126.976q-6.144-14.336 5.12-25.6t25.6-5.12l120.832 38.912q83.968-49.152 180.224-39.936t171.008 70.656 99.328 155.648-8.192 185.344-112.64 146.432-176.128 55.296zM153.6 580.267q0 88.064 53.248 156.672t138.24 91.136 165.888-12.288 122.88-111.616 28.672-163.84-77.824-146.432-151.552-68.608-160.768 37.888q-10.24 8.192-22.528 4.096l-83.968-28.672 26.624 90.112q2.048 12.288-4.096 20.48-34.816 61.44-34.816 131.072zM628.736 172.715l-122.88 61.44q32.768 10.24 63.488 26.624l71.68-36.864 229.376 116.736v34.816q0 20.48-15.36 35.84t-35.84 15.36h-86.016q12.288 24.576 20.48 51.2h65.536q43.008 0 72.704-29.696t29.696-72.704v-256q0-43.008-29.696-72.704t-72.704-29.696h-358.4q-43.008 0-72.704 29.696t-29.696 72.704v106.496q24.576-4.096 51.2-4.096v-102.4q0-20.48 15.36-35.84t35.84-15.36h358.4q20.48 0 35.84 15.36t15.36 35.84v163.84l-219.136-110.592q-12.288-4.096-22.528 0z" />
</font>
</defs>
</svg>
